<svg id="AUTRES" xmlns="http://www.w3.org/2000/svg" viewBox="0 0 500 500">
  <style>
    .st0{fill:#FFFFFF;} .st1{fill:#005E80;} .st2{fill:#005E80;stroke:#FFFFFF;stroke-width:2.1707;stroke-miterlimit:10;} .st3{fill:#005E80;stroke:#FFFFFF;stroke-width:2.8491;stroke-miterlimit:10;} .st4{fill:#FFFFFF;stroke:#005E80;stroke-width:2.4787;stroke-miterlimit:10;} .st5{fill:#FFFFFF;stroke:#005E80;stroke-width:2.3916;stroke-miterlimit:10;} .st6{fill:#FFFFFF;stroke:#005E80;stroke-width:2.8491;stroke-miterlimit:10;} .st7{fill:#005E80;stroke:#FFFFFF;stroke-width:2.4787;stroke-miterlimit:10;} .st8{fill:#005E80;stroke:#FFFFFF;stroke-width:1.9655;stroke-miterlimit:10;} .st9{fill:#D5D5D5;} .st10{fill:#C1C1C1;} .st11{fill:#4F81BC;} .st12{fill:#5182BD;} .st13{fill:#5A89C0;} .st14{fill:#5B89C1;} .st15{fill:#5282BD;} .st16{fill:#5081BD;} .st17{fill:#5E8BC2;} .st18{fill:#C3C3C3;} .st19{fill:#6892C5;} .st20{fill:#FEFEFE;} .st21{fill:#EEF3F8;} .st22{fill:#FDFDFD;} .st23{fill:#ECF1F7;} .st24{fill:#E4EBF4;} .st25{fill:#E3EAF3;} .st26{fill:#E2EAF3;} .st27{fill:#5686BF;} .st28{fill:#5F8CC2;} .st29{fill:#5E8CC2;} .st30{fill:#AFB7C0;} .st31{fill:#5081BC;} .st32{fill:#E7EDF5;} .st33{fill:#628EC3;} .st34{fill:#739AC9;} .st35{fill:#6792C5;} .st36{fill:#618EC3;} .st37{fill:#5585BE;} .st38{fill:#6490C4;} .st39{fill:#608DC2;} .st40{fill:#6A94C5;} .st41{fill:#5081BB;} .st42{fill:#4F81BB;} .st43{fill:#D0D2D4;} .st44{fill:#6992C5;} .st45{fill:#618DC1;} .st46{fill:#FCFCFC;} .st47{fill:#D6D6D6;} .st48{fill:#6993C5;} .st49{fill:#6993C4;} .st50{fill:#D9D9D9;} .st51{fill:#FEFCFC;} .st52{fill:#EFF3F8;} .st53{fill:#FAEFEF;} .st54{fill:#EEF2F7;} .st55{fill:#F4F7FA;} .st56{fill:#EEF2F8;} .st57{fill:#E6ECF4;} .st58{fill:#F4F6FA;} .st59{fill:#EAEFF6;} .st60{fill:#EBF0F6;} .st61{opacity:0.7;fill:#FFFFFF;} .st62{fill:#0071CE;} .st63{fill:#9ACAEB;} .st64{fill:#005E82;} .st65{fill:none;stroke:#005E82;stroke-width:7;stroke-miterlimit:10;} .st66{fill:none;stroke:#FFFFFF;stroke-width:4;stroke-miterlimit:10;} .st67{fill:#FFFFFF;stroke:#005E80;stroke-width:1.1638;stroke-linecap:round;stroke-linejoin:round;stroke-miterlimit:10;} .st68{fill:#005E80;stroke:#FFFFFF;stroke-width:1.1959;stroke-miterlimit:10;} .st69{fill:none;stroke:#FFFFFF;stroke-width:1.1959;stroke-linecap:round;stroke-linejoin:round;stroke-miterlimit:10;} .st70{fill:#005E80;stroke:#FFFFFF;stroke-width:2.4102;stroke-linecap:round;stroke-linejoin:round;stroke-miterlimit:10;} .st71{fill:#FFFFFF;stroke:#005E80;stroke-width:2.4102;stroke-linecap:round;stroke-linejoin:round;stroke-miterlimit:10;} .st72{fill:#005E80;stroke:#FFFFFF;stroke-width:0.3427;stroke-linecap:round;stroke-linejoin:round;stroke-miterlimit:10;} .st73{fill:#005E80;stroke:#FFFFFF;stroke-width:3.5877;stroke-miterlimit:10;} .st74{fill:#FFFFFF;stroke:#005E80;stroke-width:1.2051;stroke-linecap:round;stroke-linejoin:round;stroke-miterlimit:10;} .st75{fill:#005E80;stroke:#FFFFFF;stroke-width:1.2051;stroke-linecap:round;stroke-linejoin:round;stroke-miterlimit:10;} .st76{fill:none;stroke:#005E80;stroke-width:6.5582;stroke-miterlimit:10;} .st77{fill:none;stroke:#FFFFFF;stroke-width:3;stroke-linecap:round;stroke-linejoin:round;stroke-miterlimit:10;} .st78{fill:#005E80;stroke:#FFFFFF;stroke-width:4;stroke-miterlimit:10;} .st79{fill:#005E80;stroke:#FFFFFF;stroke-width:4;stroke-linecap:round;stroke-linejoin:round;stroke-miterlimit:10;} .st80{fill:#FEEF3F;} .st81{fill:#FFFFFF;stroke:#005E80;stroke-width:2.8912;stroke-miterlimit:10;} .st82{fill:#005E80;stroke:#FFFFFF;stroke-width:1.51;stroke-miterlimit:10;} .st83{fill:none;stroke:#005E80;stroke-width:0.6353;stroke-miterlimit:10;} .st84{fill:#FFFFFF;stroke:#005E80;stroke-width:2.3555;stroke-miterlimit:10;} .st85{fill:none;stroke:#005E80;stroke-width:2.3555;stroke-miterlimit:10;} .st86{fill:none;stroke:#005E80;stroke-width:0.5428;stroke-miterlimit:10;} .st87{fill:none;stroke:#FFFFFF;stroke-miterlimit:10;} .st88{fill:#035E80;} .st89{fill:#065E80;} .st90{fill:#009F8B;} .st91{fill:#005E80;stroke:#FFFFFF;stroke-width:0.3737;stroke-miterlimit:10;} .st92{fill:#FFFFFF;stroke:#005E80;stroke-width:0.3737;stroke-miterlimit:10;} .st93{fill:#FFFFFF;stroke:#005E80;stroke-width:1.2452;stroke-miterlimit:10;} .st94{fill:#005E80;stroke:#FFFFFF;stroke-width:0.5239;stroke-miterlimit:10;} .st95{fill:#005E80;stroke:#FFFFFF;stroke-width:1.336;stroke-miterlimit:10;}
  </style>
  <path class="st0" d="M250 496.5c-65.6 0-127.4-25.6-173.8-72-46.4-46.4-72-108.1-72-173.8s25.6-127.4 72-173.8c46.4-46.4 108.1-72 173.8-72s127.4 25.6 173.8 72c46.4 46.4 72 108.1 72 173.8s-25.6 127.4-72 173.8c-46.5 46.4-108.2 72-173.8 72z"/>
  <path class="st1" d="M250 7.9c32.8 0 64.6 6.4 94.5 19.1 28.9 12.2 54.9 29.7 77.2 52 22.3 22.3 39.8 48.3 52 77.2 12.7 29.9 19.1 61.7 19.1 94.5s-6.4 64.6-19.1 94.5c-12.2 28.9-29.7 54.9-52 77.2-22.3 22.3-48.3 39.8-77.2 52-29.9 12.7-61.7 19.1-94.5 19.1s-64.6-6.4-94.5-19.1c-28.9-12.2-54.9-29.7-77.2-52-22.3-22.3-39.8-48.3-52-77.2-12.7-29.9-19.1-61.7-19.1-94.5s6.4-64.6 19.1-94.5c12.2-28.9 29.7-54.9 52-77.2 22.3-22.3 48.3-39.8 77.2-52C185.4 14.3 217.2 7.9 250 7.9m0-6C112.6 1.9 1.2 113.3 1.2 250.7S112.6 499.5 250 499.5s248.8-111.4 248.8-248.8S387.3 1.9 250 1.9z"/>
  <path class="st2" d="M255.3 316h82.3c2.1 0 2.8.3 2.8 2.6-.1 31.8-.1 63.7 0 95.5 0 2.3-.7 2.7-2.8 2.7-54.9-.1-109.8-.1-164.7 0-2.1 0-2.8-.3-2.8-2.6.1-31.8.1-63.7 0-95.5 0-2.3.7-2.7 2.8-2.7h82.4zm-.3 83.3h72.7c1.6 0 2.2-.3 2.2-2.1-.1-22.9-.1-45.9 0-68.8 0-1.8-.6-2.1-2.2-2.1h-145c-1.9 0-2.2.6-2.2 2.3.1 22.8.1 45.6 0 68.4 0 2 .6 2.3 2.4 2.3H255zm71.4 10.4c1.2 0 2.3.1 3.5 0 1-.1 1.7-.6 1.7-1.6.1-1-.6-1.7-1.5-1.7-2.4-.1-4.8-.1-7.1 0-1 0-1.6.7-1.6 1.7s.7 1.6 1.6 1.7c1.1 0 2.2-.1 3.4-.1z"/>
  <path class="st1" d="M252.2 444.5h-34.3c-1.3 0-1.7-.3-1.8-1.6-.1-5.4-.2-5.4 5.2-5.4h64.5c2 0 2.5.6 2.5 2.5-.1 4.5 0 4.5-4.6 4.5h-31.5zm-.7-17.4h31c1.6 0 2.3.3 2.2 2.1-.1 4.8 0 4.8-4.9 4.8H221c-1.9 0-2.5-.4-2.4-2.4.1-4.6 0-4.6 4.6-4.6 9.5.1 18.9.1 28.3.1zm2-6.9c4 0 8.1.1 12.1 0 1.5 0 1.8.5 1.8 1.9s-.5 1.7-1.8 1.7c-8.1 0-16.2-.1-24.3 0-1.5 0-1.8-.5-1.8-1.9s.5-1.7 1.8-1.7h12.2z"/>
  <path class="st0" d="M255 399.3h-72.1c-1.8 0-2.4-.3-2.4-2.3.1-22.8.1-45.6 0-68.4 0-1.7.4-2.3 2.2-2.3 48.3.1 96.7 0 145 0 1.6 0 2.2.3 2.2 2.1-.1 22.9-.1 45.9 0 68.8 0 1.8-.7 2.1-2.2 2.1H255z"/>
  <path class="st2" d="M317 97.7h56.3c1.4 0 1.9.3 1.9 2.2-.1 26-.1 52 0 78.1 0 1.9-.5 2.2-1.9 2.2H260.5c-1.4 0-1.9-.3-1.9-2.2.1-26 .1-52 0-78.1 0-1.9.5-2.2 1.9-2.2H317zm-.3 68.1h49.8c1.1 0 1.5-.2 1.5-1.7v-56.2c0-1.5-.4-1.7-1.5-1.7h-99.2c-1.3 0-1.5.5-1.5 1.9V164c0 1.6.4 1.9 1.7 1.9 16.4-.1 32.8-.1 49.2-.1zm48.9 8.5h2.4c.7 0 1.1-.5 1.2-1.3 0-.8-.4-1.4-1.1-1.4-1.6-.1-3.3-.1-4.9 0-.7 0-1.1.6-1.1 1.4 0 .8.5 1.3 1.1 1.4.8-.1 1.6-.1 2.4-.1z"/>
  <path class="st1" d="M314.8 202.7h-23.5c-.9 0-1.2-.2-1.2-1.3-.1-4.4-.1-4.4 3.6-4.4h44.1c1.4 0 1.7.5 1.7 2.1-.1 3.6 0 3.6-3.2 3.6h-21.5zm-.4-14.2h21.2c1.1 0 1.5.3 1.5 1.7-.1 4 0 4-3.3 4h-40.2c-1.3 0-1.7-.4-1.6-1.9.1-3.8 0-3.8 3.2-3.8h19.2zm1.3-5.7c2.8 0 5.5.1 8.3 0 1 0 1.2.4 1.2 1.5 0 1.2-.4 1.4-1.2 1.4h-16.6c-1 0-1.2-.4-1.2-1.5 0-1.2.4-1.4 1.2-1.4 2.8.1 5.5 0 8.3 0z"/>
  <path class="st0" d="M316.7 165.8h-49.3c-1.2 0-1.7-.3-1.7-1.9.1-18.6 0-37.3 0-55.9 0-1.4.3-1.9 1.5-1.9h99.2c1.1 0 1.5.3 1.5 1.7V164c0 1.5-.4 1.7-1.5 1.7-16.5.1-33.1.1-49.7.1z"/>
  <path class="st91" d="M137.6 177.5v85.4c0 4.6-1 5.5-5.4 5.5h-5.5c-1.3 0-1.8.6-1.8 1.9v6.7c0 1.3-.4 1.8-1.8 1.8-4.8-.1-9.6-.1-14.4 0-1.4 0-1.8-.5-1.8-1.8.1-2.2 0-4.5 0-6.7 0-1.4-.5-1.9-1.8-1.8-2.2 0-4.5.1-6.7 0-3-.1-4.2-1.3-4.3-4.3V91.3c.1-3.4 1.3-4.6 4.7-4.7 3.6-.1 7.2 0 10.8 0h22.8c4.1 0 5.2 1.1 5.2 5.3v85.6zm-3.9 62.6c0-9.8-8.1-17.9-17.9-17.9-9.7 0-17.9 8.2-17.9 17.9-.1 9.7 8.4 18.2 18.1 18 9.8-.1 17.8-8.2 17.7-18zm0-92.1c0-9.8-8-17.9-17.9-17.8-9.8 0-17.9 8-18 17.8-.1 9.8 8.3 18.1 18.1 18 10-.2 17.9-8.1 17.8-18zm0 46.1c0-9.8-8.1-17.9-17.9-17.9-9.8 0-17.9 8-18 17.8-.1 9.7 8.3 18.1 18 18 10-.1 18-8.1 17.9-17.9zm-8.6-86.9c0-5.1-4.3-9.3-9.4-9.2-5.1.1-9.1 4.2-9.1 9.3 0 5.1 4.2 9.3 9.3 9.3 5.2-.1 9.3-4.2 9.2-9.4zm77.6 70.5v85.2c0 4.9-.8 5.6-5.7 5.7-2.3.1-5.2-1.1-6.6.6-1.3 1.5-.3 4.3-.4 6.5-.1 3.7.2 3.2-3.2 3.2-4.2 0-8.5-.1-12.7 0-1.6 0-2.1-.5-2-2.1.1-2.2 0-4.3 0-6.5 0-1.3-.5-1.9-1.8-1.8-2 .1-4 0-6 0-3.8-.1-4.9-1.2-4.9-4.9V92.5c0-5.2.8-5.9 6-5.9h31.4c5.2 0 5.9.8 5.9 6v85.1zm-39.6 16.4c-.1 9.9 7.7 17.8 17.7 18 9.8.2 18.1-8 18-17.9 0-9.8-8-17.9-17.8-17.9s-17.8 7.9-17.9 17.8zm35.8 46.4c.2-9.7-7.7-18-17.5-18.2-9.8-.2-18 7.7-18.2 17.5-.2 10 7.6 18.1 17.6 18.3 9.6.4 17.8-7.7 18.1-17.6zm0-92c.2-9.9-7.8-18.1-17.8-18.2-9.7-.1-17.8 7.7-17.9 17.5-.2 10.1 7.5 18 17.6 18.3 9.7.2 17.8-7.7 18.1-17.6zm-8.7-41.2c-.1-5.1-4.4-9.3-9.4-9.2-5 .1-9.1 4.3-9.1 9.3 0 5.1 4.2 9.3 9.3 9.3 5.2 0 9.3-4.3 9.2-9.4zm-74.3 182.5c-5.6 0-11.2-.1-16.8 0-1.7 0-2.2-.5-2.2-2.2.1-5.5-.5-4.4 4.4-4.5 10.2-.1 20.4 0 30.6-.1 2.2 0 2.9.6 2.8 2.8-.2 4.5.5 3.8-3.8 3.9-4.9.1-10 .1-15 .1zm65.3-6.5h16.5c1.5 0 2.1.4 2.1 2-.1 5.7.6 4.6-4.5 4.6-10.2.1-20.4 0-30.7.1-2 0-2.7-.5-2.6-2.5.2-4.9-.5-4.1 4.3-4.1 5-.1 10-.1 14.9-.1z"/>
  <path class="st91" d="M133.7 240.1c0 9.8-7.9 17.9-17.7 18-9.7.2-18.1-8.3-18.1-18 .1-9.7 8.2-17.9 17.9-17.9 9.8 0 17.9 8.1 17.9 17.9zm-17.9 14.8c8.1 0 14.8-6.6 14.9-14.7 0-8.1-6.7-14.8-14.8-14.8-8 0-14.6 6.6-14.7 14.6-.2 8.1 6.4 14.9 14.6 14.9zM133.7 148c0 9.9-7.9 17.8-17.8 17.9-9.8.1-18.2-8.2-18.1-18 .1-9.8 8.2-17.8 18-17.8 9.9 0 17.9 8 17.9 17.9zM116 133.4c-8.2 0-14.8 6.4-14.9 14.6 0 8.2 6.5 14.7 14.8 14.8 8.2 0 14.8-6.6 14.8-14.8-.1-8.1-6.6-14.6-14.7-14.6zm17.7 60.7c0 9.9-7.9 17.8-17.8 18-9.8.1-18.2-8.3-18-18 .1-9.8 8.2-17.8 18-17.8 9.8-.1 17.8 7.9 17.8 17.8zM116 208.8c8.1 0 14.6-6.5 14.7-14.6.1-8.1-6.6-14.8-14.7-14.8-8.2 0-14.8 6.6-14.8 14.8-.1 8.1 6.6 14.6 14.8 14.6zm9.1-101.6c0 5.2-4.1 9.3-9.2 9.4-5.1 0-9.3-4.1-9.3-9.3 0-5 4-9.2 9.1-9.3 5.1-.1 9.4 4.1 9.4 9.2zm-3.3.2c0-3.3-2.6-6-5.9-6-3.3 0-6 2.7-5.9 6 0 3.2 2.5 5.8 5.8 5.9 3.2 0 5.9-2.6 6-5.9zm41.3 86.7c.1-9.9 8.1-17.8 17.9-17.8 9.8 0 17.8 8.1 17.8 17.9 0 9.9-8.3 18.1-18 17.9-10-.2-17.7-8.1-17.7-18zm17.9 14.8c8.2 0 14.8-6.7 14.7-14.8-.1-8.1-6.6-14.6-14.7-14.7-8.1-.1-14.8 6.5-14.9 14.7.1 8.2 6.7 14.8 14.9 14.8zm17.9 31.6c-.2 9.9-8.5 17.9-18.1 17.7-10-.3-17.8-8.4-17.6-18.3.2-9.9 8.4-17.8 18.2-17.5 9.7.2 17.7 8.4 17.5 18.1zM181 255c8.1 0 14.8-6.7 14.7-14.8-.1-8.1-6.8-14.8-14.9-14.7-8 .1-14.6 6.7-14.6 14.7 0 8.1 6.7 14.8 14.8 14.8zm17.9-106.5c-.2 9.9-8.4 17.8-18.1 17.6-10.1-.3-17.8-8.3-17.6-18.3.2-9.8 8.2-17.6 17.9-17.5 10 .1 18 8.3 17.8 18.2zm-17.8 14.4c8.2 0 14.8-6.7 14.7-14.8-.1-8.2-6.7-14.6-15-14.5-8.1.1-14.6 6.6-14.6 14.7s6.7 14.6 14.9 14.6zm9.1-55.6c.1 5.1-4.1 9.4-9.2 9.4s-9.3-4.1-9.3-9.3c0-5 4-9.2 9.1-9.3 5.1-.1 9.4 4.1 9.4 9.2zm-9.2 6c3.3 0 5.9-2.7 5.8-6-.1-3.2-2.7-5.8-5.8-5.8-3.3 0-6 2.7-6 5.9.1 3.3 2.8 6 6 5.9z"/>
  <path class="st91" d="M115.8 254.9c-8.1 0-14.7-6.8-14.7-14.9.1-8 6.7-14.6 14.7-14.6 8.1 0 14.8 6.7 14.8 14.8 0 8.1-6.7 14.7-14.8 14.7zm0-7.6c4 .1 7.2-3.1 7.3-7 .1-3.8-3.2-7.2-7.1-7.3-3.9-.1-7.2 3.2-7.2 7.1-.1 3.9 3 7.1 7 7.2zm.2-113.9c8.1 0 14.6 6.5 14.6 14.6.1 8.1-6.6 14.8-14.8 14.8-8.2 0-14.8-6.6-14.8-14.8.1-8.2 6.7-14.7 15-14.6zm0 21.7c4 0 7.1-3.2 7.1-7.2-.1-4-3.2-7.1-7.3-7-4 0-7.1 3.2-7 7.2 0 4 3.1 7.1 7.2 7zm0 53.7c-8.2 0-14.8-6.5-14.8-14.7 0-8.1 6.6-14.8 14.8-14.8 8.1 0 14.8 6.8 14.7 14.8-.2 8.2-6.7 14.7-14.7 14.7zm-.1-7.6c4 0 7.1-3.2 7.1-7.2-.1-3.9-3.4-7.2-7.3-7.1-3.9.1-7.1 3.3-7 7.3.1 4 3.2 7 7.2 7z"/>
  <path class="st92" d="M121.8 107.4c0 3.3-2.8 5.9-6 5.8-3.2-.1-5.7-2.7-5.8-5.9 0-3.3 2.7-6 5.9-6 3.3.1 5.9 2.8 5.9 6.1z"/>
  <path class="st91" d="M181 208.9c-8.2 0-14.8-6.6-14.8-14.7.1-8.2 6.7-14.8 14.9-14.7 8.1.1 14.6 6.6 14.7 14.7 0 8.1-6.6 14.7-14.8 14.7zm-.1-7.6c4.1 0 7.2-3 7.2-7 0-3.9-3.2-7.2-7.1-7.2-3.9-.1-7.2 3.2-7.2 7.1 0 3.9 3.1 7.1 7.1 7.1zm.1 53.7c-8.1 0-14.8-6.7-14.8-14.8.1-8 6.6-14.6 14.6-14.7 8.1-.1 14.8 6.5 14.9 14.7.1 8.1-6.6 14.8-14.7 14.8zm-.1-7.6c4 0 7.2-3.1 7.2-7s-3.1-7.2-7.1-7.3c-3.9-.1-7.2 3.2-7.2 7.1 0 3.9 3.1 7.1 7.1 7.2zm.2-84.5c-8.2 0-14.8-6.5-14.8-14.7 0-8.1 6.5-14.6 14.6-14.7 8.2-.1 14.8 6.3 15 14.5 0 8.2-6.6 14.8-14.8 14.9zm0-21.8c-4 0-7.2 3-7.2 7s3.1 7.2 7.1 7.2c4 0 7.2-3 7.2-7 0-4.1-3.1-7.2-7.1-7.2z"/>
  <path class="st92" d="M181 113.3c-3.3 0-6-2.6-6-5.9 0-3.3 2.7-6 6-5.9 3.2 0 5.8 2.6 5.8 5.8.1 3.3-2.5 6-5.8 6z"/>
  <path class="st0" d="M115.8 247.3c-4-.1-7.1-3.2-7-7.2 0-3.9 3.3-7.1 7.2-7.1 3.9.1 7.1 3.4 7.1 7.3-.1 3.9-3.4 7-7.3 7zm.2-92.2c-4 0-7.2-3-7.2-7s3-7.1 7-7.2c4 0 7.2 3 7.3 7 0 4-3.2 7.2-7.1 7.2zm-.1 46.1c-4.1 0-7.2-3-7.2-7 0-3.9 3.1-7.2 7-7.3 3.9-.1 7.2 3.2 7.3 7.1.1 4-3 7.1-7.1 7.2zm65 .1c-4 0-7.1-3.2-7.1-7.2.1-3.9 3.3-7.2 7.2-7.1 3.9.1 7.1 3.3 7.1 7.2 0 4.1-3.1 7.1-7.2 7.1zm0 46.1c-4 0-7.1-3.2-7.1-7.2.1-3.9 3.4-7.2 7.2-7.1 3.9.1 7.1 3.3 7.1 7.3 0 3.9-3.2 7-7.2 7zm.2-106.3c4 0 7.1 3.2 7.1 7.2s-3.2 7.1-7.2 7c-4 0-7.1-3.2-7.1-7.2s3.2-7.1 7.2-7z"/>
  <path class="st1" d="M429.7 264.1H399c-6.6 0-12-5.4-12-12v-87.5c0-6.6 5.4-12 12-12h30.7c6.6 0 12 5.4 12 12v87.5c0 6.6-5.4 12-12 12z"/>
  <path class="st0" d="M434 163.9h-39.3c-1.1 0-2-.9-2-2v-.9c0-1.1.9-2 2-2H434c1.1 0 2 .9 2 2v.9c0 1.1-.9 2-2 2zm0 9.3h-39.3c-1.1 0-2-.9-2-2v-.9c0-1.1.9-2 2-2H434c1.1 0 2 .9 2 2v.9c0 1.1-.9 2-2 2zm0 9.3h-39.3c-1.1 0-2-.9-2-2v-.9c0-1.1.9-2 2-2H434c1.1 0 2 .9 2 2v.9c0 1.1-.9 2-2 2z"/>
  <circle class="st0" cx="413.4" cy="228" r="5.6"/>
  <path class="st1" d="M372.2 262.6H262.6c-4.1 0-7.4-3.3-7.4-7.4v-32.6c0-3.6 2.9-6.5 6.5-6.5h109.7c4 0 7.2 3.2 7.2 7.2v32.9c0 3.5-2.9 6.4-6.4 6.4z"/>
  <path class="st0" d="M263.8 228.7h-1.4c-1.6 0-2.8-1.3-2.8-2.8v-1.4c0-1.6 1.3-2.8 2.8-2.8h1.4c1.6 0 2.8 1.3 2.8 2.8v1.4c0 1.5-1.2 2.8-2.8 2.8zm9.4 0h-1.4c-1.6 0-2.8-1.3-2.8-2.8v-1.4c0-1.6 1.3-2.8 2.8-2.8h1.4c1.6 0 2.8 1.3 2.8 2.8v1.4c.1 1.5-1.2 2.8-2.8 2.8zm9.5 0h-1.4c-1.6 0-2.8-1.3-2.8-2.8v-1.4c0-1.6 1.3-2.8 2.8-2.8h1.4c1.6 0 2.8 1.3 2.8 2.8v1.4c0 1.5-1.3 2.8-2.8 2.8zm9.4 0h-1.4c-1.6 0-2.8-1.3-2.8-2.8v-1.4c0-1.6 1.3-2.8 2.8-2.8h1.4c1.6 0 2.8 1.3 2.8 2.8v1.4c.1 1.5-1.2 2.8-2.8 2.8zm9.5 0h-1.4c-1.6 0-2.8-1.3-2.8-2.8v-1.4c0-1.6 1.3-2.8 2.8-2.8h1.4c1.6 0 2.8 1.3 2.8 2.8v1.4c0 1.5-1.3 2.8-2.8 2.8zm9.4 0h-1.4c-1.6 0-2.8-1.3-2.8-2.8v-1.4c0-1.6 1.3-2.8 2.8-2.8h1.4c1.6 0 2.8 1.3 2.8 2.8v1.4c0 1.5-1.2 2.8-2.8 2.8zm9.4 0H319c-1.6 0-2.8-1.3-2.8-2.8v-1.4c0-1.6 1.3-2.8 2.8-2.8h1.4c1.6 0 2.8 1.3 2.8 2.8v1.4c.1 1.5-1.2 2.8-2.8 2.8zm8.8-7.1c1.9 0 3.5 1.6 3.5 3.5s-1.6 3.5-3.5 3.5-3.5-1.6-3.5-3.5 1.6-3.5 3.5-3.5m10.1 7.1H338c-1.6 0-2.8-1.3-2.8-2.8v-1.4c0-1.6 1.3-2.8 2.8-2.8h1.4c1.6 0 2.8 1.3 2.8 2.8v1.4c0 1.5-1.3 2.8-2.9 2.8zm9.5 0h-1.4c-1.6 0-2.8-1.3-2.8-2.8v-1.4c0-1.6 1.3-2.8 2.8-2.8h1.4c1.6 0 2.8 1.3 2.8 2.8v1.4c0 1.5-1.3 2.8-2.8 2.8zm9.4 0h-1.4c-1.6 0-2.8-1.3-2.8-2.8v-1.4c0-1.6 1.3-2.8 2.8-2.8h1.4c1.6 0 2.8 1.3 2.8 2.8v1.4c0 1.5-1.2 2.8-2.8 2.8zm13.2 0h-6.2c-1.6 0-2.8-1.3-2.8-2.8v-1.4c0-1.6 1.3-2.8 2.8-2.8h6.2c1.6 0 2.8 1.3 2.8 2.8v1.4c0 1.5-1.2 2.8-2.8 2.8zM263.8 238h-1.4c-1.6 0-2.8-1.3-2.8-2.8v-1.4c0-1.6 1.3-2.8 2.8-2.8h1.4c1.6 0 2.8 1.3 2.8 2.8v1.4c0 1.6-1.2 2.8-2.8 2.8zm9.5 0h-1.4c-1.6 0-2.8-1.3-2.8-2.8v-1.4c0-1.6 1.3-2.8 2.8-2.8h1.4c1.6 0 2.8 1.3 2.8 2.8v1.4c0 1.6-1.3 2.8-2.8 2.8zm9.4 0h-1.4c-1.6 0-2.8-1.3-2.8-2.8v-1.4c0-1.6 1.3-2.8 2.8-2.8h1.4c1.6 0 2.8 1.3 2.8 2.8v1.4c0 1.6-1.2 2.8-2.8 2.8zm9.4 0h-1.4c-1.6 0-2.8-1.3-2.8-2.8v-1.4c0-1.6 1.3-2.8 2.8-2.8h1.4c1.6 0 2.8 1.3 2.8 2.8v1.4c.1 1.6-1.2 2.8-2.8 2.8zm9.5 0h-1.4c-1.6 0-2.8-1.3-2.8-2.8v-1.4c0-1.6 1.3-2.8 2.8-2.8h1.4c1.6 0 2.8 1.3 2.8 2.8v1.4c0 1.6-1.3 2.8-2.8 2.8zm9.4 0h-1.4c-1.6 0-2.8-1.3-2.8-2.8v-1.4c0-1.6 1.3-2.8 2.8-2.8h1.4c1.6 0 2.8 1.3 2.8 2.8v1.4c0 1.6-1.2 2.8-2.8 2.8zm9.4 0H319c-1.6 0-2.8-1.3-2.8-2.8v-1.4c0-1.6 1.3-2.8 2.8-2.8h1.4c1.6 0 2.8 1.3 2.8 2.8v1.4c.1 1.6-1.2 2.8-2.8 2.8zm9.5 0h-1.4c-1.6 0-2.8-1.3-2.8-2.8v-1.4c0-1.6 1.3-2.8 2.8-2.8h1.4c1.6 0 2.8 1.3 2.8 2.8v1.4c0 1.6-1.3 2.8-2.8 2.8zm9.4 0H338c-1.6 0-2.8-1.3-2.8-2.8v-1.4c0-1.6 1.3-2.8 2.8-2.8h1.4c1.6 0 2.8 1.3 2.8 2.8v1.4c0 1.6-1.3 2.8-2.9 2.8zm9.5 0h-1.4c-1.6 0-2.8-1.3-2.8-2.8v-1.4c0-1.6 1.3-2.8 2.8-2.8h1.4c1.6 0 2.8 1.3 2.8 2.8v1.4c0 1.6-1.3 2.8-2.8 2.8zm9.4 0h-1.4c-1.6 0-2.8-1.3-2.8-2.8v-1.4c0-1.6 1.3-2.8 2.8-2.8h1.4c1.6 0 2.8 1.3 2.8 2.8v1.4c0 1.6-1.2 2.8-2.8 2.8zm-94.4 8.9h-1.4c-1.6 0-2.8-1.3-2.8-2.8v-1.4c0-1.6 1.3-2.8 2.8-2.8h1.4c1.6 0 2.8 1.3 2.8 2.8v1.4c0 1.5-1.2 2.8-2.8 2.8zm9.1 0h-1.4c-1.6 0-2.8-1.3-2.8-2.8v-1.4c0-1.6 1.3-2.8 2.8-2.8h1.4c1.6 0 2.8 1.3 2.8 2.8v1.4c.1 1.5-1.2 2.8-2.8 2.8zm9.2 0h-1.4c-1.6 0-2.8-1.3-2.8-2.8v-1.4c0-1.6 1.3-2.8 2.8-2.8h1.4c1.6 0 2.8 1.3 2.8 2.8v1.4c0 1.5-1.3 2.8-2.8 2.8zm9.1 0h-1.4c-1.6 0-2.8-1.3-2.8-2.8v-1.4c0-1.6 1.3-2.8 2.8-2.8h1.4c1.6 0 2.8 1.3 2.8 2.8v1.4c0 1.5-1.2 2.8-2.8 2.8zm9.1 0H299c-1.6 0-2.8-1.3-2.8-2.8v-1.4c0-1.6 1.3-2.8 2.8-2.8h1.4c1.6 0 2.8 1.3 2.8 2.8v1.4c0 1.5-1.3 2.8-2.9 2.8zm9.2 0h-1.4c-1.6 0-2.8-1.3-2.8-2.8v-1.4c0-1.6 1.3-2.8 2.8-2.8h1.4c1.6 0 2.8 1.3 2.8 2.8v1.4c0 1.5-1.3 2.8-2.8 2.8zm9.1 0h-1.4c-1.6 0-2.8-1.3-2.8-2.8v-1.4c0-1.6 1.3-2.8 2.8-2.8h1.4c1.6 0 2.8 1.3 2.8 2.8v1.4c0 1.5-1.2 2.8-2.8 2.8zm9.2 0h-1.4c-1.6 0-2.8-1.3-2.8-2.8v-1.4c0-1.6 1.3-2.8 2.8-2.8h1.4c1.6 0 2.8 1.3 2.8 2.8v1.4c0 1.5-1.3 2.8-2.8 2.8zm9.1 0h-1.4c-1.6 0-2.8-1.3-2.8-2.8v-1.4c0-1.6 1.3-2.8 2.8-2.8h1.4c1.6 0 2.8 1.3 2.8 2.8v1.4c0 1.5-1.3 2.8-2.8 2.8zm9.1 0h-1.4c-1.6 0-2.8-1.3-2.8-2.8v-1.4c0-1.6 1.3-2.8 2.8-2.8h1.4c1.6 0 2.8 1.3 2.8 2.8v1.4c.1 1.5-1.2 2.8-2.8 2.8zm9.2 0h-1.4c-1.6 0-2.8-1.3-2.8-2.8v-1.4c0-1.6 1.3-2.8 2.8-2.8h1.4c1.6 0 2.8 1.3 2.8 2.8v1.4c0 1.5-1.3 2.8-2.8 2.8zm9.1 0h-1.4c-1.6 0-2.8-1.3-2.8-2.8v-1.4c0-1.6 1.3-2.8 2.8-2.8h1.4c1.6 0 2.8 1.3 2.8 2.8v1.4c0 1.5-1.2 2.8-2.8 2.8z"/>
  <path class="st0" d="M373.3 246.9h-3.2c-.5 0-1-.4-1-1v-7.6c0-.6-.4-1-1-1h-3.3c-.7 0-1.2-.5-1.2-1.2v-3c0-1.1.9-2 2-2h6.6c1.1 0 2 .9 2 2V246c0 .4-.4.9-.9.9zM335 259.1h-29.5c-1.6 0-2.8-1.3-2.8-2.8v-1.4c0-1.6 1.3-2.8 2.8-2.8H335c1.6 0 2.8 1.3 2.8 2.8v1.4c0 1.5-1.3 2.8-2.8 2.8z"/>
  <path class="st91" d="M323.2 152.7c-3 1.6-6 2.2-9.7 2.2-8.9 0-16.5-6.5-16.5-17 0-11.2 7.8-20.9 19.9-20.9 9.5 0 15.8 6.6 15.8 15.7 0 8.2-4.6 12.9-9.7 12.9-2.2 0-4.2-1.5-4-4.8h-.2c-1.9 3.2-4.4 4.8-7.7 4.8-3.2 0-5.9-2.6-5.9-6.9 0-6.7 5.3-12.9 12.9-12.9 2.3 0 4.4.5 5.8 1.1l-1.9 9.8c-.8 4.1-.2 6 1.6 6.1 2.8.1 5.9-3.6 5.9-10 0-7.9-4.7-13.5-13.2-13.5-8.9 0-16.3 7-16.3 18.1 0 9.1 5.9 14.7 14 14.7 3.1 0 6-.7 8.2-1.9l1 2.5zm-3-23.5c-.5-.2-1.5-.4-2.7-.4-4.8 0-8.6 4.5-8.6 9.8 0 2.4 1.2 4.1 3.6 4.1 3.2 0 6-4 6.6-7.4l1.1-6.1z"/>
</svg>
