<svg id="AUTRES" xmlns="http://www.w3.org/2000/svg" viewBox="0 0 500 500">
  <style>
    .st0{fill:#FFFFFF;} .st1{fill:#005E80;} .st2{fill:#005E80;stroke:#FFFFFF;stroke-width:2.1707;stroke-miterlimit:10;} .st3{fill:#005E80;stroke:#FFFFFF;stroke-width:2.8491;stroke-miterlimit:10;} .st4{fill:#FFFFFF;stroke:#005E80;stroke-width:2.4787;stroke-miterlimit:10;} .st5{fill:#FFFFFF;stroke:#005E80;stroke-width:2.3916;stroke-miterlimit:10;} .st6{fill:#FFFFFF;stroke:#005E80;stroke-width:2.8491;stroke-miterlimit:10;} .st7{fill:#005E80;stroke:#FFFFFF;stroke-width:2.4787;stroke-miterlimit:10;} .st8{fill:#005E80;stroke:#FFFFFF;stroke-width:1.9655;stroke-miterlimit:10;} .st9{fill:#D5D5D5;} .st10{fill:#C1C1C1;} .st11{fill:#4F81BC;} .st12{fill:#5182BD;} .st13{fill:#5A89C0;} .st14{fill:#5B89C1;} .st15{fill:#5282BD;} .st16{fill:#5081BD;} .st17{fill:#5E8BC2;} .st18{fill:#C3C3C3;} .st19{fill:#6892C5;} .st20{fill:#FEFEFE;} .st21{fill:#EEF3F8;} .st22{fill:#FDFDFD;} .st23{fill:#ECF1F7;} .st24{fill:#E4EBF4;} .st25{fill:#E3EAF3;} .st26{fill:#E2EAF3;} .st27{fill:#5686BF;} .st28{fill:#5F8CC2;} .st29{fill:#5E8CC2;} .st30{fill:#AFB7C0;} .st31{fill:#5081BC;} .st32{fill:#E7EDF5;} .st33{fill:#628EC3;} .st34{fill:#739AC9;} .st35{fill:#6792C5;} .st36{fill:#618EC3;} .st37{fill:#5585BE;} .st38{fill:#6490C4;} .st39{fill:#608DC2;} .st40{fill:#6A94C5;} .st41{fill:#5081BB;} .st42{fill:#4F81BB;} .st43{fill:#D0D2D4;} .st44{fill:#6992C5;} .st45{fill:#618DC1;} .st46{fill:#FCFCFC;} .st47{fill:#D6D6D6;} .st48{fill:#6993C5;} .st49{fill:#6993C4;} .st50{fill:#D9D9D9;} .st51{fill:#FEFCFC;} .st52{fill:#EFF3F8;} .st53{fill:#FAEFEF;} .st54{fill:#EEF2F7;} .st55{fill:#F4F7FA;} .st56{fill:#EEF2F8;} .st57{fill:#E6ECF4;} .st58{fill:#F4F6FA;} .st59{fill:#EAEFF6;} .st60{fill:#EBF0F6;} .st61{opacity:0.7;fill:#FFFFFF;} .st62{fill:#0071CE;} .st63{fill:#9ACAEB;} .st64{fill:#005E82;} .st65{fill:none;stroke:#005E82;stroke-width:7;stroke-miterlimit:10;} .st66{fill:none;stroke:#FFFFFF;stroke-width:4;stroke-miterlimit:10;} .st67{fill:#FFFFFF;stroke:#005E80;stroke-width:1.1638;stroke-linecap:round;stroke-linejoin:round;stroke-miterlimit:10;} .st68{fill:#005E80;stroke:#FFFFFF;stroke-width:1.1959;stroke-miterlimit:10;} .st69{fill:none;stroke:#FFFFFF;stroke-width:1.1959;stroke-linecap:round;stroke-linejoin:round;stroke-miterlimit:10;} .st70{fill:#005E80;stroke:#FFFFFF;stroke-width:2.4102;stroke-linecap:round;stroke-linejoin:round;stroke-miterlimit:10;} .st71{fill:#FFFFFF;stroke:#005E80;stroke-width:2.4102;stroke-linecap:round;stroke-linejoin:round;stroke-miterlimit:10;} .st72{fill:#005E80;stroke:#FFFFFF;stroke-width:0.3427;stroke-linecap:round;stroke-linejoin:round;stroke-miterlimit:10;} .st73{fill:#005E80;stroke:#FFFFFF;stroke-width:3.5877;stroke-miterlimit:10;} .st74{fill:#FFFFFF;stroke:#005E80;stroke-width:1.2051;stroke-linecap:round;stroke-linejoin:round;stroke-miterlimit:10;} .st75{fill:#005E80;stroke:#FFFFFF;stroke-width:1.2051;stroke-linecap:round;stroke-linejoin:round;stroke-miterlimit:10;} .st76{fill:none;stroke:#005E80;stroke-width:6.5582;stroke-miterlimit:10;} .st77{fill:none;stroke:#FFFFFF;stroke-width:3;stroke-linecap:round;stroke-linejoin:round;stroke-miterlimit:10;} .st78{fill:#005E80;stroke:#FFFFFF;stroke-width:4;stroke-miterlimit:10;} .st79{fill:#005E80;stroke:#FFFFFF;stroke-width:4;stroke-linecap:round;stroke-linejoin:round;stroke-miterlimit:10;} .st80{fill:#FEEF3F;} .st81{fill:#FFFFFF;stroke:#005E80;stroke-width:2.8912;stroke-miterlimit:10;} .st82{fill:#005E80;stroke:#FFFFFF;stroke-width:1.51;stroke-miterlimit:10;} .st83{fill:none;stroke:#005E80;stroke-width:0.6353;stroke-miterlimit:10;} .st84{fill:#FFFFFF;stroke:#005E80;stroke-width:2.3555;stroke-miterlimit:10;} .st85{fill:none;stroke:#005E80;stroke-width:2.3555;stroke-miterlimit:10;} .st86{fill:none;stroke:#005E80;stroke-width:0.5428;stroke-miterlimit:10;} .st87{fill:none;stroke:#FFFFFF;stroke-miterlimit:10;} .st88{fill:#035E80;} .st89{fill:#065E80;} .st90{fill:#009F8B;} .st91{fill:#005E80;stroke:#FFFFFF;stroke-width:0.3737;stroke-miterlimit:10;} .st92{fill:#FFFFFF;stroke:#005E80;stroke-width:0.3737;stroke-miterlimit:10;} .st93{fill:#FFFFFF;stroke:#005E80;stroke-width:1.2452;stroke-miterlimit:10;} .st94{fill:#005E80;stroke:#FFFFFF;stroke-width:0.5239;stroke-miterlimit:10;} .st95{fill:#005E80;stroke:#FFFFFF;stroke-width:1.336;stroke-miterlimit:10;}
  </style>
  <path class="st0" d="M250.8 496.4c-65.8 0-127.6-25.6-174.1-72.1S4.5 316 4.5 250.2 30.1 122.6 76.6 76.1 185 4 250.8 4c65.8 0 127.6 25.6 174.1 72.1S497 184.4 497 250.2s-25.6 127.6-72.1 174.1-108.4 72.1-174.1 72.1z"/>
  <path class="st1" d="M250.8 6.9c32.8 0 64.7 6.4 94.7 19.1 29 12.3 55 29.8 77.3 52.1 22.3 22.3 39.9 48.4 52.1 77.3 12.7 30 19.1 61.8 19.1 94.7 0 32.8-6.4 64.7-19.1 94.7-12.3 29-29.8 55-52.1 77.3-22.3 22.3-48.4 39.9-77.3 52.1-30 12.7-61.8 19.1-94.7 19.1s-64.7-6.4-94.7-19.1c-29-12.3-55-29.8-77.3-52.1-22.3-22.3-39.9-48.4-52.1-77.3C14 314.8 7.6 283 7.6 250.1c0-32.8 6.4-64.7 19.1-94.7 12.3-29 29.8-55 52.1-77.3 22.3-22.3 48.4-39.9 77.3-52.1 30-12.6 61.8-19.1 94.7-19.1m0-5.9C113.1 1 1.5 112.5 1.5 250.2s111.6 249.2 249.2 249.2S500 387.8 500 250.2 388.4 1 250.8 1z"/>
  <path class="st80" d="M298.8 1.2v1.4"/>
  <path class="st0" d="M222.8 363.4c-3.2 0-4.8-1.6-4.8-4.7v-46.3l-1.1-.6c-28-14.5-46.8-44.4-46.8-74.5 0-45.7 37.3-82.8 83.1-82.8 45.9 0 83.3 37.2 83.3 82.8 0 37-24.9 63.3-46.2 74.5l-1.1.6v46.3c0 3.5-2.9 4.7-5.7 4.7h-60.7z"/>
  <path class="st88" d="M253.2 156.5c44.8 0 81.3 36.3 81.3 80.8 0 15.7-4.8 31.1-13.8 44.5-7.9 11.7-19 21.7-31.3 28.2l-2.1 1.1v47.5c0 2.4-2.3 2.7-3.7 2.7h-60.7c-2.1 0-2.8-.7-2.8-2.7v-47.5l-2.2-1.1c-27.4-14.1-45.7-43.4-45.7-72.7 0-21.6 8.4-41.9 23.7-57.1 15.2-15.3 35.6-23.7 57.3-23.7m0-4c-47.2 0-85.1 38.1-85.1 84.8 0 30.8 19.1 61.4 47.9 76.3v45.1c0 4.3 2.5 6.7 6.8 6.7h60.7c4.3 0 7.7-2.4 7.7-6.7v-45.1c24.3-12.8 47.3-40.5 47.3-76.3 0-46.8-38.3-84.8-85.3-84.8z"/>
  <path class="st89" d="M253.2 74.1c-.4 0-.8.4-.8.8v30.7c0 .4.4.8.8.8s.8-.4.8-.8V74.9c0-.4-.4-.8-.8-.8zm81.2 29c-.3 0-.5.1-.7.3l-14.8 21c-.3.4-.2.9.2 1.1.1.1.3.1.5.1.3 0 .5-.1.7-.3l14.8-21c.3-.4.2-.9-.2-1.1-.2 0-.4-.1-.5-.1zm-163.3 0c-.2 0-.3 0-.5.1-.4.3-.5.8-.2 1.1l14.8 21c.2.2.4.3.7.3.2 0 .3 0 .5-.1.4-.3.5-.8.2-1.1l-14.8-21c-.2-.2-.4-.3-.7-.3z"/>
  <path class="st64" d="M281.7 394.4h-56.9c-4.5 0-8.1-3.6-8.1-8.1s3.6-8.1 8.1-8.1h56.9c4.5 0 8.1 3.6 8.1 8.1s-3.6 8.1-8.1 8.1zm0 23.6h-56.9c-4.5 0-8.1-3.6-8.1-8.1s3.6-8.1 8.1-8.1h56.9c4.5 0 8.1 3.6 8.1 8.1s-3.6 8.1-8.1 8.1z"/>
  <path class="st1" d="M217.5 313.6v45.1c0 4.3 2.4 6.7 6.6 6.7h58.8c4.1 0 7.4-2.4 7.4-6.7v-45.1c14.3-7.8 28-21 36.7-38.1H180.6c8.1 15.8 21 29.6 36.9 38.1z"/>
</svg>
