<svg id="AUTRES" xmlns="http://www.w3.org/2000/svg" viewBox="0 0 500 500">
  <style>
    .st0{fill:#FFFFFF;} .st1{fill:#005E80;} .st2{fill:#005E80;stroke:#FFFFFF;stroke-width:2.1707;stroke-miterlimit:10;} .st3{fill:#005E80;stroke:#FFFFFF;stroke-width:2.8491;stroke-miterlimit:10;} .st4{fill:#FFFFFF;stroke:#005E80;stroke-width:2.4787;stroke-miterlimit:10;} .st5{fill:#FFFFFF;stroke:#005E80;stroke-width:2.3916;stroke-miterlimit:10;} .st6{fill:#FFFFFF;stroke:#005E80;stroke-width:2.8491;stroke-miterlimit:10;} .st7{fill:#005E80;stroke:#FFFFFF;stroke-width:2.4787;stroke-miterlimit:10;} .st8{fill:#005E80;stroke:#FFFFFF;stroke-width:1.9655;stroke-miterlimit:10;} .st9{fill:#D5D5D5;} .st10{fill:#C1C1C1;} .st11{fill:#4F81BC;} .st12{fill:#5182BD;} .st13{fill:#5A89C0;} .st14{fill:#5B89C1;} .st15{fill:#5282BD;} .st16{fill:#5081BD;} .st17{fill:#5E8BC2;} .st18{fill:#C3C3C3;} .st19{fill:#6892C5;} .st20{fill:#FEFEFE;} .st21{fill:#EEF3F8;} .st22{fill:#FDFDFD;} .st23{fill:#ECF1F7;} .st24{fill:#E4EBF4;} .st25{fill:#E3EAF3;} .st26{fill:#E2EAF3;} .st27{fill:#5686BF;} .st28{fill:#5F8CC2;} .st29{fill:#5E8CC2;} .st30{fill:#AFB7C0;} .st31{fill:#5081BC;} .st32{fill:#E7EDF5;} .st33{fill:#628EC3;} .st34{fill:#739AC9;} .st35{fill:#6792C5;} .st36{fill:#618EC3;} .st37{fill:#5585BE;} .st38{fill:#6490C4;} .st39{fill:#608DC2;} .st40{fill:#6A94C5;} .st41{fill:#5081BB;} .st42{fill:#4F81BB;} .st43{fill:#D0D2D4;} .st44{fill:#6992C5;} .st45{fill:#618DC1;} .st46{fill:#FCFCFC;} .st47{fill:#D6D6D6;} .st48{fill:#6993C5;} .st49{fill:#6993C4;} .st50{fill:#D9D9D9;} .st51{fill:#FEFCFC;} .st52{fill:#EFF3F8;} .st53{fill:#FAEFEF;} .st54{fill:#EEF2F7;} .st55{fill:#F4F7FA;} .st56{fill:#EEF2F8;} .st57{fill:#E6ECF4;} .st58{fill:#F4F6FA;} .st59{fill:#EAEFF6;} .st60{fill:#EBF0F6;} .st61{opacity:0.7;fill:#FFFFFF;} .st62{fill:#0071CE;} .st63{fill:none;} .st64{font-family:&apos;LeagueGothic-Regular&apos;;} .st65{font-size:4.4275px;} .st66{font-size:2.9516px;} .st67{fill:#9ACAEB;} .st68{fill:#005E82;} .st69{font-family:&apos;Roboto-Regular&apos;;} .st70{font-size:1.9186px;} .st71{fill:none;stroke:#005E82;stroke-width:7;stroke-miterlimit:10;} .st72{fill:none;stroke:#FFFFFF;stroke-width:4;stroke-miterlimit:10;} .st73{fill:#FFFFFF;stroke:#005E80;stroke-width:1.1638;stroke-linecap:round;stroke-linejoin:round;stroke-miterlimit:10;} .st74{fill:#005E80;stroke:#FFFFFF;stroke-width:1.1959;stroke-miterlimit:10;} .st75{fill:none;stroke:#FFFFFF;stroke-width:1.1959;stroke-linecap:round;stroke-linejoin:round;stroke-miterlimit:10;} .st76{fill:#005E80;stroke:#FFFFFF;stroke-width:2.4102;stroke-linecap:round;stroke-linejoin:round;stroke-miterlimit:10;} .st77{fill:#FFFFFF;stroke:#005E80;stroke-width:2.4102;stroke-linecap:round;stroke-linejoin:round;stroke-miterlimit:10;} .st78{fill:#005E80;stroke:#FFFFFF;stroke-width:0.3427;stroke-linecap:round;stroke-linejoin:round;stroke-miterlimit:10;} .st79{fill:#005E80;stroke:#FFFFFF;stroke-width:3.5877;stroke-miterlimit:10;} .st80{fill:#FFFFFF;stroke:#005E80;stroke-width:1.2051;stroke-linecap:round;stroke-linejoin:round;stroke-miterlimit:10;} .st81{fill:#005E80;stroke:#FFFFFF;stroke-width:1.2051;stroke-linecap:round;stroke-linejoin:round;stroke-miterlimit:10;} .st82{fill:none;stroke:#005E80;stroke-width:6.5582;stroke-miterlimit:10;} .st83{fill:none;stroke:#FFFFFF;stroke-width:3;stroke-linecap:round;stroke-linejoin:round;stroke-miterlimit:10;} .st84{fill:#005E80;stroke:#FFFFFF;stroke-width:4;stroke-miterlimit:10;} .st85{fill:#005E80;stroke:#FFFFFF;stroke-width:4;stroke-linecap:round;stroke-linejoin:round;stroke-miterlimit:10;} .st86{fill:#FEEF3F;} .st87{fill:#FFFFFF;stroke:#005E80;stroke-width:2.8912;stroke-miterlimit:10;} .st88{fill:#005E80;stroke:#FFFFFF;stroke-width:1.51;stroke-miterlimit:10;} .st89{fill:none;stroke:#005E80;stroke-width:0.6353;stroke-miterlimit:10;} .st90{fill:#FFFFFF;stroke:#005E80;stroke-width:2.3555;stroke-miterlimit:10;} .st91{fill:none;stroke:#005E80;stroke-width:2.3555;stroke-miterlimit:10;} .st92{fill:none;stroke:#005E80;stroke-width:0.5428;stroke-miterlimit:10;} .st93{fill:none;stroke:#FFFFFF;stroke-miterlimit:10;} .st94{fill:#035E80;} .st95{fill:#065E80;} .st96{fill:#009F8B;} .st97{fill:#005E80;stroke:#FFFFFF;stroke-width:0.3737;stroke-miterlimit:10;} .st98{fill:#FFFFFF;stroke:#005E80;stroke-width:0.3737;stroke-miterlimit:10;} .st99{fill:#FFFFFF;stroke:#005E80;stroke-width:1.2452;stroke-miterlimit:10;} .st100{fill:#005E80;stroke:#FFFFFF;stroke-width:0.5239;stroke-miterlimit:10;} .st101{fill:#005E80;stroke:#FFFFFF;stroke-width:1.336;stroke-miterlimit:10;}
  </style>
  <path class="st0" d="M250 497.4c-65.9 0-127.9-25.7-174.5-72.3S3.3 316.6 3.3 250.7 28.9 122.9 75.5 76.3C122.1 29.7 184.1 4 250 4s127.9 25.7 174.5 72.3c46.6 46.6 72.3 108.6 72.3 174.5s-25.7 127.9-72.3 174.5-108.6 72.1-174.5 72.1z"/>
  <path class="st1" d="M250 7c32.9 0 64.8 6.4 94.9 19.1 29 12.3 55.1 29.8 77.5 52.2s40 48.4 52.2 77.5c12.7 30 19.1 62 19.1 94.9 0 32.9-6.4 64.8-19.1 94.9-12.3 29-29.8 55.1-52.2 77.5s-48.4 40-77.5 52.2c-30 12.7-62 19.1-94.9 19.1s-64.8-6.4-94.9-19.1c-29-12.3-55.1-29.8-77.5-52.2s-40-48.4-52.2-77.5c-12.7-30-19.1-62-19.1-94.9 0-32.9 6.4-64.8 19.1-94.9 12.3-29 29.8-55.1 52.2-77.5s48.4-40 77.5-52.2C185.2 13.4 217.1 7 250 7m0-6C112.1 1 .3 112.8.3 250.7S112.1 500.4 250 500.4s249.7-111.8 249.7-249.7S387.9 1 250 1z"/>
  <path class="st9" d="M271.7 117.9h-.1c-.1 0-.1-.1-.1-.2.3 0 .7-.1 1-.1h99.2v.3h-99.6c-.2.2-.3.2-.4 0z"/>
  <path class="st10" d="M273.9 125.3h97.8v.3h-97.8c-.1-.1-.1-.2-.1-.2s0-.1.1-.1zm1.7 7.4H370c.5 0 1.1-.1 1.6.1-.5.3-1.1.1-1.6.1h-94.5c-.1-.1-.1-.2-.1-.2h.2z"/>
  <path class="st11" d="M273.9 125.3v7.7c.4.5.4 1.1.4 1.7v13.6c-.1 2.3.2 4.6-.1 6.8-.1.2-.2.3-.3.4h-.8c-.1-.1-.2-.3-.3-.4-.3-2.3-.1-4.5-.1-6.8v-.5c0-2.4-.1-4.7 0-7.1v-7.8c0-2.3-.2-4.6.1-6.8.1-.2.2-.3.3-.5.1-.3-.1-.7.4-.8.4-.3.3.2.4.5z"/>
  <path class="st10" d="M289.1 140.2c.5 0 1-.1 1.5-.1H372c-.7.4-1.3.3-1.8.3h-75.7c-.6 0-1.3-.3-1.8.3-.1.1-.2.1-.3.2h-.4c-.4-.1-.7-.1-1 .1-.2.1-.5.1-.7 0l-.9-.3c-.1-.1-.2-.1-.3-.3v-.2z"/>
  <path class="st12" d="M275.6 132.7v7.7c.4.5.4 1.1.4 1.7 0 2 .1 4 0 6 0 2.3.2 4.7-.1 7-.1.2-.2.3-.3.4h-.5c-.5-.6-.4-1.3-.4-1.9v-10.7c0-.6.1-1.2-.1-1.7-.1-.3-.2-.7-.1-1 .5-2.1.3-4.2.2-6.3 0-.3-.2-.7 0-1 .7-1.2.1-2.5.3-3.7.1-.4-.2-1 .5-1 .5 0 .3.6.3 1-.2 1.1-.2 2.3-.2 3.5z"/>
  <path class="st13" d="M280.4 140.1c.5-.7.1-1.6.3-2.4 0-.3-.1-.8.4-.8.4 0 .4.5.4.8 0 .9 0 1.7.1 2.6.5.5.4 1.1.4 1.6v6c-.1 2.3.2 4.7-.1 7-.1.2-.2.3-.3.4h-.8c-.1-.1-.2-.3-.3-.4-.4-2.4 0-4.8-.3-7.2.2-2 .1-4 .1-6-.1-.4-.2-1 .1-1.6z"/>
  <path class="st14" d="M283.2 155.5h-.8c-.1-.1-.3-.3-.3-.4-.4-2.4 0-4.8-.2-7.2.2-2 0-4 .1-6 0-.6-.1-1.2.2-1.7.7-.4-.2-1.8.8-1.7.8.1.1 1.3.4 1.9.5.6.4 1.3.4 2v5.7c0 2.3.2 4.7-.1 7-.2.1-.3.2-.5.4z"/>
  <path class="st11" d="M290.1 140.7h.8c.5.4.5 1 .5 1.6v5.9c-.1 2.3.2 4.6-.1 6.9-.1.2-.2.3-.3.4h-.8c-.1-.1-.2-.3-.3-.4-.4-2.4 0-4.8-.2-7.2.2-1.8 0-3.5.1-5.3-.1-.7-.2-1.4.3-1.9z"/>
  <path class="st9" d="M331.2 147.8h40.4v.3h-37c-.6 0-1.2-.2-1.7.3-.1.1-.3.2-.5.2-.1 0-.2 0-.3-.1-.3-.1-.7-.1-1-.4 0-.1 0-.2.1-.3z"/>
  <path class="st11" d="M294.7 155.4h-.7c-.1-.1-.3-.2-.3-.4-.2-2.4-.4-4.8.1-7.2.6-1.5.1-3.2.3-4.7 0-.4-.2-1.1.3-1.1.8 0 .4.7.4 1.1.1 1.7.1 3.3.1 5 .5.5.5 1.2.5 1.8-.1 1.7.2 3.4-.2 5.1-.2.2-.3.3-.5.4zm3.9.1h-.8c-.1-.1-.2-.3-.3-.4-.3-2.3-.2-4.5 0-6.8.1-.2.2-.3.3-.5 0-1.5 0-3 .1-4.6 0-.3-.1-.8.4-.8s.4.4.4.8c0 1.6 0 3.2.1 4.9.5.6.4 1.4.4 2.1 0 1.6.2 3.2-.1 4.8l-.5.5z"/>
  <path class="st15" d="M277.3 155.5h-.5c-.1-.1-.2-.3-.3-.4-.4-2.4 0-4.8-.3-7.2.2-2 .1-4 .1-6 0-.6-.1-1.2.2-1.7.6-.9.1-1.8.3-2.7.1-.4-.2-1 .6-.9.3 3.7.5 7.3.4 11v6.1c0 .6.1 1.3-.5 1.8z"/>
  <path class="st11" d="M279.4 155.5h-.5c-.3-.3-.4-.8-.4-1.2 0-4.6-.1-9.2.1-13.8.5-1.2-.1-2.4.3-3.6.7-.4.6.2.6.5 0 1 0 2 .1 3 .4.5.4 1.1.4 1.7 0 2 .1 4 0 6 0 2.3.2 4.7-.1 7-.3.1-.4.2-.5.4zm4.8-15.4c.7-.4-.2-1.7.6-1.6.8.1.3 1.2.4 1.9.2.4.2.8.2 1.1v12.4c0 .5 0 1.1-.4 1.5h-.5c-.1-.1-.2-.3-.3-.4-.4-2.4 0-4.8-.3-7.2.2-2 .1-4 .1-6 0-.5 0-1.1.2-1.7z"/>
  <path class="st16" d="M287.1 155.5h-.5c-.6-.6-.4-1.4-.4-2.1-.1-4.1.1-8.3-.1-12.4-.1-.3-.1-.5 0-.8.1-.1.2-.1.2-.2.3-.4-.2-1.2.6-1.1.6.1.2.8.3 1.3v.3c.4.5.4 1.1.4 1.7 0 2 .1 4 0 6 0 2.3.2 4.7-.1 7-.2 0-.3.1-.4.3z"/>
  <path class="st17" d="M305.2 147.8c.6-.8.1-1.8.3-2.7.1-.3-.1-.8.4-.8.4 0 .4.5.4.8 0 1 0 1.9.1 2.9.5.5.4 1.2.4 1.8-.1 1.7.2 3.4-.1 5.1-.1.2-.2.3-.3.4h-.8c-.1-.1-.2-.3-.3-.4-.4-2.3-.4-4.7-.1-7.1z"/>
  <path class="st17" d="M307 147.8c.6-.7.2-1.5.3-2.3 0-.6.1-1.1.8-.9.4 3.3.5 6.5.4 9.8 0 .4-.1.8-.4 1.1h-.8c-.1-.1-.3-.3-.3-.4-.3-2.5-.4-4.9 0-7.3z"/>
  <path class="st18" d="M286.2 140.4c.5.4.3 1 .3 1.5 0 4.5 0 9 .1 13.5-.5.5-1 .5-1.5 0 0-4.5 0-9 .1-13.4 0-.5-.2-1.1.2-1.6l.1-.1c.7.9.3 2 .4 3 .1 1 0 2.1 0 3.4v-4.6c-.1-.5-.2-1.2.3-1.7z"/>
  <path class="st11" d="M289.1 140.2v.2c.3.9.2 1.7.2 2.6v10.6c0 .7.1 1.4-.4 1.9h-.5c-.1-.1-.2-.3-.3-.4-.4-2.4 0-4.8-.3-7.2.2-2 .1-4 .1-6 0-.6-.1-1.2.2-1.7.3-.4.7-.5 1 0z"/>
  <path class="st19" d="M300.4 155.5h-.6c-.5-.5-.4-1.2-.4-1.8-.1-1.7.1-3.4-.1-5.1-.1-.2-.1-.5 0-.7.6-.9.2-2 .3-3 0-.4-.1-.9.5-.9s.5.5.5.9c0 1.1.1 2.2.1 3.2 0 .1 0 .2.1.3.1 1.9 0 3.8 0 5.8 0 .4 0 .9-.4 1.3z"/>
  <path class="st20" d="M276.5 140.1c.4 2.6.4 5.1 0 7.7-.2.3-.4.6-.9.3v-7.7l.9-.3zm3 8v-7.7l.9-.3c.4 2.6.4 5.1 0 7.7-.3.3-.5.6-.9.3zm4.7-8c.4 2.6.4 5.1 0 7.7-.2.3-.4.6-.9.3v-7.7l.9-.3zm3.8 0c.4 2.6.4 5.1 0 7.7-.2.3-.4.6-.9.3v-7.7c.4-.1.7-.2.9-.3z"/>
  <path class="st11" d="M292.2 140.7h.5c0 2.5.1 4.9.1 7.4.7.9.4 2 .4 3 0 1.3.2 2.6-.2 3.9-.1.2-.2.3-.3.5h-.5c-.5-.5-.4-1.1-.4-1.7v-11.5c-.1-.5-.1-1.1.4-1.6z"/>
  <path class="st21" d="M274.5 132.8c.2.3.4.6.4 1v5.7c0 .3 0 .6-.4.7-.2.1-.4.4-.7.3v-7.4c.3-.2.5-.3.7-.3z"/>
  <path class="st22" d="M329.2 148.1l.9-.3c.3.1.5.3.6.6.1 2.3.5 4.5-.2 6.7-.5.3-.9.2-1.4 0-.5-2.3-.8-4.6.1-7z"/>
  <path class="st23" d="M319.7 148.1l.9-.3c.3.1.5.4.5.7.1 2.2.4 4.5-.2 6.7-.5.2-.9.3-1.4 0-.5-2.4-.6-4.7.2-7.1z"/>
  <path class="st24" d="M317.9 148.1c.2-.1.5-.2.7-.3.3.1.5.4.5.7.1 2.2.4 4.5-.2 6.7-.3.3-.7.2-1.1.1-.1 0-.2-.1-.2-.1-.6-2.3-.5-4.6-.1-6.9 0-.2.2-.2.4-.2z"/>
  <path class="st20" d="M312 148.1l.9-.3c.3.1.5.3.6.6.1 2.3.4 4.5-.2 6.7-.5.3-.9.2-1.4 0-.5-2.3-.7-4.6.1-7zm-6.8-.3c.6 2.4.2 4.9.2 7.4-.4.3-.9.3-1.3-.1-.3-2.3-.7-4.7.2-7l.9-.3z"/>
  <path class="st25" d="M294.8 155.2v-7.1l.9-.3c.3.1.5.4.5.7.1 2.2.4 4.5-.2 6.7-.3.3-.8.2-1.2 0z"/>
  <path class="st26" d="M292.8 155.2v-7.1l.9-.3c.6 2.4.2 4.9.2 7.4-.3.3-.7.2-1.1 0z"/>
  <path class="st11" d="M318.8 155.2c0-2.5.4-4.9-.2-7.4.6-.3-.2-1.5.7-1.4.7.1.2 1.1.4 1.6v7.1c.2.1.2.2-.1.2h-.7c-.3.1-.3 0-.1-.1z"/>
  <path class="st27" d="M301.4 147.8c.5-.9.1-1.9.3-2.8.1-.3-.2-.9.3-1 .7 0 .4.6.5 1 .1.9.1 1.9.1 2.8 0 .1.1.2.1.2v.3c-.1 1.8 0 3.6 0 5.4 0 .6.1 1.3-.4 1.8h-.5c-.1-.1-.2-.3-.3-.4-.4-2.5-.4-4.9-.1-7.3z"/>
  <path class="st11" d="M296 155.2c-.1-2.5.3-4.9-.2-7.4.6-1.5.1-3.1.3-4.6 0-.4-.3-1.1.6-1 .1.1.1.2.1.3-.1 3.8.5 7.7.3 11.5 0 .5 0 1.1-.4 1.5h-.5c-.1 0-.2-.1-.2-.1-.1-.2 0-.2 0-.2z"/>
  <path class="st28" d="M322.6 147.8c.1-.3.1-.8.5-.8.7.1.3.7.4 1.1.6.7.4 1.6.4 2.4 0 1.5.2 3-.1 4.5-.1.2-.2.3-.3.5h-.8c-.1-.1-.3-.3-.3-.4-.3-2.3-.2-4.5 0-6.8 0-.2.1-.3.2-.5z"/>
  <path class="st11" d="M326.4 147.8c.1-.3.1-.7.6-.6.4 0 .4.4.4.6.1.1.2.3.3.5.2 2.3.2 4.5 0 6.8-.1.2-.2.3-.3.4h-.8c-.1-.1-.2-.3-.3-.4-.3-2.2-.2-4.5 0-6.8-.1-.2 0-.4.1-.5z"/>
  <path class="st29" d="M330.3 155.2c-.1-2.5.3-4.9-.2-7.4.4-.2.8-.5 1.2 0v.3c.5.5.5 1.2.4 1.8-.1 1.7.2 3.4-.1 5.1-.1.2-.2.3-.3.4h-.8c-.1 0-.2-.1-.1-.2h-.1z"/>
  <path class="st30" d="M278.8 136.9c0 1.2 0 2.4-.1 3.5l-.3.3c-.5.4-.3 1-.3 1.5v6c0 2.2.2 4.5-.1 6.7-.1.2-.2.3-.3.4h-.3v-18.9c.6.9.1 1.8.3 2.7.1.3 0 .8.5.8s.4-.4.5-.7c0-.7-.4-1.5.1-2.3z"/>
  <path class="st18" d="M315.2 155.5c-.5.5-1 .5-1.5 0-.3-.4-.3-.8-.3-1.3v-7.4c0-.5-.1-1 .3-1.4.6.8.1 1.8.3 2.7.7 1.2.3 2.5.4 3.7.1.6 0 1.2 0 1.8.1-1.9-.2-3.9.1-5.8.5-.5.2-1.1.3-1.6.1-.6.3-.9.9-.4-.4.7-.3 1.4-.2 2.2.2 2.1 0 4.2.1 6.4 0 .3 0 .7-.4 1.1z"/>
  <path class="st20" d="M282.2 140.1c.5 2.6.5 5.1 0 7.7-.2.2-.3.4-.6.3v-7.7c.1-.1.3-.2.6-.3z"/>
  <path class="st31" d="M304.3 148.1v7.1c.1.1.1.2-.1.3h-.5c-.4-.4-.4-1-.4-1.5-.2-3 .2-6 .3-9.1 0-.5 0-.9.7-.7v3.9z"/>
  <path class="st32" d="M286.2 140.4v6.4c0 .4.1.9-.5.9s-.4-.6-.4-.9v-6.4c.2-.1.4-.2.6-.2.2 0 .3.1.3.2z"/>
  <path class="st33" d="M317.9 148.1c-.3 2.4-.3 4.7 0 7.1.1 0 .1.1.2.1-.1 0-.1.1-.2.1-.3 0-.5 0-.8.1-.3-.3-.4-.7-.4-1.1 0-2.9-.1-5.8.4-8.7.6-.1.8.2.8.7-.1.6-.1 1.2 0 1.7z"/>
  <path class="st22" d="M299.3 147.8c.1.1.1.2.2.3.3 2.2.1 4.4.1 6.6 0 .7-.4.8-1 .5v-7.1c.3-.1.5-.2.7-.3zm2.1 0c.6 2.4.1 4.9.2 7.4-.7.4-1 .1-1-.6 0-2.1-.1-4.3.1-6.4h.1c.1-.2.3-.3.6-.4z"/>
  <path class="st9" d="M304.3 144.3c-.8 0-.6.7-.6 1.1v10.1c-.5.2-1 .2-1.5 0 0-2 0-4 .1-6 0-.5-.1-1 .2-1.4.6.7.4 1.6.4 2.4v-.9c0-.5 0-1.1-.5-1.4v-.2c.7 0 1-.3.9-1v-2.2c.1-.7.4-1 1-.5z"/>
  <path class="st20" d="M307 147.8c.6 2.4.2 4.9.2 7.4-.3.2-.6.2-.9 0v-7.1c.3-.1.5-.2.7-.3z"/>
  <path class="st22" d="M314.6 147.8c.6 2.3.2 4.6.3 6.8 0 .3-.1.5-.4.5-.5 0-.5-.4-.5-.8V148c.3 0 .4-.1.6-.2zm8.9 7.4v-7.1l.6-.3c.3.1.4.3.5.6.2 1.9.1 3.8.1 5.7 0 .8-.1 1.6-1.2 1.1z"/>
  <path class="st34" d="M353.1 155.2v-4.1c0-.4-.1-1 .6-.9.6.1.4.6.5.9v4.1c.1.1.2.1.1.1h-.1c-.4.1-.7.1-1.1 0-.1 0-.2-.1-.1-.1 0 .1.1 0 .1 0z"/>
  <path class="st11" d="M309.3 147.8v-2.3c0-.4.1-.7.6-.6.4 3.4.6 6.7.3 10.1-.1.2-.2.3-.3.5h-.5c-.1-.1-.2-.3-.3-.4-.3-2.3-.2-4.5 0-6.8 0-.2.1-.4.2-.5z"/>
  <path class="st35" d="M336.8 155.5h-.8c-.2 0-.2-.1-.1-.2 0-1.9 0-3.7.1-5.6 0-.4-.1-.9.4-.9.6 0 .4.6.4.9v5.6c.2 0 .1.1 0 .2z"/>
  <path class="st28" d="M334.1 155.2v-5.7c0-.3-.1-.8.4-.8s.4.4.4.8c0 1.9 0 3.8.1 5.7.2.1.1.2-.1.3h-.8c-.1 0-.2-.1-.1-.2 0-.1.1-.1.1-.1z"/>
  <path class="st36" d="M313.8 145.4c0 3.3 0 6.7-.1 10h-.5c-.1 0-.2-.1-.1-.2 0-.1 0-.1.1-.1-.1-2.5.3-4.9-.2-7.4.5-.5.2-1.1.3-1.6-.1-.3-.2-.8.5-.7z"/>
  <path class="st37" d="M312 148.1v7.1c.1.1.1.2-.1.3h-.5c-.5-.5-.4-1.2-.4-1.8 0-2.5 0-5.1.3-7.6.1-.5 0-.9.7-.7v2.7z"/>
  <path class="st33" d="M315.2 155.5v-8.7c0-.4-.2-1 .6-1.1 0 .7.1 1.4.1 2 .1.2.2.3.3.5.2 2.3.2 4.5 0 6.8-.1.2-.2.3-.3.4-.3.1-.5.1-.7.1z"/>
  <path class="st11" d="M320.8 155.2c-.1-2.5.3-4.9-.2-7.4.6-.2-.2-1.4.9-1.2.7 2.5.3 5.1.4 7.6 0 .5-.1.9-.4 1.2h-.5c-.1 0-.2-.1-.2-.2-.1 0 0 0 0 0z"/>
  <path class="st38" d="M324.4 148.1c-.1-.1-.1-.2-.2-.3.4-.2.5-.9 1.1-.6.7 2.6.4 5.2.3 7.8-.1.2-.2.3-.3.5h-.6c-.4-1.8 0-3.7-.2-5.5 0-.6.2-1.3-.1-1.9z"/>
  <path class="st39" d="M344.5 155.5h-.8c-.1 0-.2-.1-.2-.1 0-.1.1-.1.1-.1v-4.7c0-.3 0-.8.4-.8.5 0 .4.5.4.8v4.7c.3 0 .2.1.1.2z"/>
  <path class="st10" d="M275 141c.3 2.2.1 4.5.1 6.7.1 2.7 0 5.4.1 8.1-.4 0-2.9.4-3.3-.6-.1-.6 2.1.4 2.1.4.3-.2.4-.5.4-.9v-5.3c0-.4-.2-.7-.4-.9v-.3c.5-.4.4-1 .4-1.5v-4.1c.1-.6 0-1.2.6-1.6z"/>
  <path class="st9" d="M277.7 155.5v-.3c.3-.2.4-.5.4-.9V149c0-.4-.2-.7-.4-.9v-.3c.5-.4.4-.9.4-1.5v-4.2c0-.6 0-1.2.4-1.7h.2c0 5 .1 10 .1 15-.3.1-.7.7-1.1.1zm14.5-14.8v14.8c-.4 0-.8.6-1.3 0 0-.1 0-.2.1-.3.3-.3.4-.6.4-1v-5c0-.4-.1-.8-.4-1v-.3c.5-.4.4-1 .4-1.5v-4.1c0-.5-.1-1.2.6-1.5l.2-.1z"/>
  <path class="st11" d="M347.5 155.2c0-1.5 0-3 .1-4.5 0-.3-.1-.7.3-.7.5-.1.4.4.4.7v4.5c.1.1.1.1.1.2h-.9c-.2 0-.2-.1 0-.2z"/>
  <path class="st18" d="M288.9 155.5c0-4.5 0-9 .1-13.6 0-.5-.1-1.1.2-1.6l.1.1c.3.3.4.8.4 1.2 0 2.1.1 4.2-.1 6.3.2 1.9 0 3.7.1 5.6 0 .6-.1 1.2.4 1.6 0 .1.1.2.1.3-.5 1.1-.9.1-1.3.1z"/>
  <path class="st11" d="M329.2 148.1v7.1c.1.1.1.2.1.2l-.1.1h-.5c-.1-.1-.2-.2-.2-.4-.2-2.6-.6-5.3.2-7.9.6-.1.3.6.5.9zm22.1 7.1V151c0-.3-.1-.7.4-.7s.4.4.4.7v4.2c.1.1.1.2.1.2l-.1.1h-.8c-.1 0-.2-.1-.2-.1.1-.2.1-.2.2-.2z"/>
  <path class="st9" d="M296.6 155.5v-13.3c.7 1.4.2 3 .3 4.4.1.6-.1 1.3.9 1.2v.3c-.3.3-.4.6-.4 1v5c0 .4.1.8.4 1 0 .1.1.2.1.3-.5.7-.9.1-1.3.1z"/>
  <path class="st18" d="M338.6 148.7c.7 1.5.1 3.1.3 4.6v1.2c0 .3 0 .6.4.6s.4-.3.4-.6v-4.4c0-.4-.1-.8.3-1.1.5 2.2.5 4.3 0 6.5-.5.5-1 .5-1.5 0-.4-2.3-.4-4.5.1-6.8z"/>
  <path class="st40" d="M355.1 155.2v-3.8c0-.3-.1-.8.4-.8.4 0 .4.5.4.8 0 1.3 0 2.5.1 3.8.2.1.2.2 0 .2h-.8c-.1 0-.2-.1-.1-.2-.1 0 0 0 0 0z"/>
  <path class="st11" d="M332.4 148.4h.6c0 2.3 0 4.5.1 6.8.1.1.1.2-.1.3h-.5c-.3-.3-.5-.8-.4-1.2 0-2-.6-4 .3-5.9z"/>
  <path class="st41" d="M359.8 155.4h-.7c-.2 0-.2-.1-.1-.2 0-1.3 0-2.5.1-3.8 0-.3 0-.6.4-.6.3 0 .3.3.3.6 0 1.3 0 2.5.1 3.8.1.1.1.2-.1.2z"/>
  <path class="st35" d="M338.6 148.7v6.8h-.6c-.1 0-.2-.1-.1-.2 0-.1 0-.1.1-.1v-5.4c0-.5-.3-1.1.6-1.1z"/>
  <path class="st19" d="M360.8 155.2c0-1.1.1-2.2.1-3.3 0-.6.1-.9.8-.8.2 1.5.2 2.9 0 4.4-.3 0-.5 0-.8-.1-.3 0-.3-.1-.1-.2z"/>
  <path class="st9" d="M309.3 147.8v.3c-.3.3-.4.6-.4 1v5c0 .4.1.8.4 1 0 .1.1.2.1.3-.4.6-.8 0-1.2 0v-10.9c.6.7.2 1.5.3 2.2-.1.7 0 1.2.8 1.1z"/>
  <path class="st35" d="M340.1 155.5V149c.9-.1.6.6.6 1v5.1c.1.1.1.2-.1.3-.2.1-.3.1-.5.1z"/>
  <path class="st18" d="M311.9 145.4c-.7 0-.6.5-.6.9v9.1c-.5.5-1 .4-1.5 0 0-.1.1-.2.1-.3l.3-.3c.5-.4.3-1 .3-1.5.1-1.7-.1-3.4.1-5.2.1-.1.2-.3.3-.4v-1.9c.2-.5.4-.9 1-.4z"/>
  <path class="st9" d="M315.9 148.1v-.3c.6.1.8-.2.8-.8 0-.4-.2-.9.3-1.2v9.7c-.4 0-.8.6-1.2 0 0-.1.1-.2.1-.3.3-.3.4-.6.4-1v-5c0-.4-.1-.8-.4-1.1z"/>
  <path class="st19" d="M341.8 155.2v-4.6c0-.4-.3-1.1.6-1 .2 2 .2 3.9 0 5.9h-.6c-.1 0-.2-.1-.1-.2 0-.1.1-.1.1-.1z"/>
  <path class="st9" d="M321.4 155.5v-8.9c.4.3.1 1.4 1.2 1.2v.3c-.3.3-.4.6-.4 1v5c0 .4.1.8.5 1 0 .1 0 .2.1.3-.5.7-1 .1-1.4.1zm-11.2-.3h-.2c0-3.4-.1-6.9-.1-10.3.6.6.3 1.3.3 1.9 0 .6.1 1.1.9 1v.3c-.5.4-.4.9-.4 1.5v4.1c-.1.5-.1 1.1-.5 1.5z"/>
  <path class="st11" d="M346.2 155.5h-.5c-.3-1.9-.3-3.7 0-5.6h.5c.3 1.9.3 3.7 0 5.6zm3.3-.3v-4.1c0-.4-.2-1 .6-.9.3 1.7.3 3.5 0 5.2h-.5c-.1 0-.2-.1-.2-.1 0-.1.1-.1.1-.1z"/>
  <path class="st9" d="M328.6 147.3v8.2c-.4 0-.8.3-1.3 0 0-.1 0-.2.1-.3.3-.3.4-.6.4-1v-5c0-.4-.1-.8-.4-1v-.3c.5.1.8-.4 1.2-.6z"/>
  <path class="st42" d="M357.2 150.8c.8-.1.6.5.6.9v3.5c.1.1.1.2 0 .2l-.1.1h-.5c-.3-1.6-.2-3.1 0-4.7z"/>
  <path class="st18" d="M363.5 151.4c.5 1 .1 2 .3 3 0 .3 0 .8.4.8.5 0 .4-.4.4-.8.1-.8-.3-1.7.3-2.4.5 1.2.4 2.3 0 3.5-.5.5-1 .5-1.5 0-.4-1.4-.5-2.8.1-4.1zm-39.1-3.3c.6 1.5.1 3.1.2 4.6.1.9 0 1.8.1 2.8-.4 0-.8 1-1.2 0 0-.1 0-.2.1-.3 1 .2.8-.5.8-1.1v-6zm-25.7 7.1c.9.1.9-.5.9-1.1v-6c.6 1.5.1 3.1.3 4.6.1.9 0 1.8.1 2.8-.4 0-.9 1-1.2 0-.2-.1-.2-.2-.1-.3zm2-7.1c0 2 0 4 .1 6 0 .6-.1 1.3.9 1.1 0 .1.1.2.1.3-.4 1-.8.1-1.2 0 0-2.5-.4-4.9.1-7.4z"/>
  <path class="st43" d="M332.4 148.4v7.1c-.4 0-.9 1-1.3 0 0-.1 0-.2.1-.2.5-.4.4-.9.5-1.5v-3.9c0-.6-.1-1.3.7-1.5z"/>
  <path class="st9" d="M325.4 155.2v-8c.3.3.6.7 1.1.6v.3c-.5.4-.4 1.1-.4 1.6-.1 1.7.2 3.5-.2 5.3-.2.2-.4.2-.5.2z"/>
  <path class="st41" d="M368.4 155.2V153c0-.3.1-.5.4-.5.3 0 .4.2.4.5 0 .7 0 1.4.1 2.2.1.1.1.2 0 .2l-.1.1h-.8c-.1 0-.2-.1-.2-.1l.2-.2z"/>
  <path class="st44" d="M363.5 151.4c0 1.4 0 2.8-.1 4.1h-.6c-.1 0-.2-.1-.1-.2 0-.1 0-.1.1-.1v-3c0-.5 0-1 .7-.8z"/>
  <path class="st45" d="M371.4 155.5h-.8c-.3-.9-.2-1.8 0-2.7.7-.2.9.1.9.8 0 .5 0 1.1.1 1.6.1.1.1.2.1.2-.2 0-.3.1-.3.1z"/>
  <path class="st46" d="M272.3 147.8c0 2.5.1 4.5.1 7.1-.1 0 0-.1-.2-.1-.4-2.4-.3-4.2-.4-6.6v-.3c.1 0 .2-.1.3-.1.1 0 .2.1.2 0z"/>
  <path class="st10" d="M272 147.8v7.7c-.6-.7-.3-1.5-.3-2.2v-5.5c.2-.1.2-.1.3 0zm-.3-29.9h.3v7.4c.1.1.1.1.1.2v.1c-.1.1-.2.1-.3 0 0-2.5-.1-5.1-.1-7.7z"/>
  <path class="st18" d="M342.4 155.5v-5.9c.7 1.5.2 3 .3 4.5.1.6 0 1.2.9 1.1v.2c-.3 1.1-.8.1-1.2.1z"/>
  <path class="st10" d="M272 147.8h-.3v-7.4c.2 0 .4.1.5.3.4 1.2.4 2.5.2 3.6-.2 1.2-.1 2.3-.3 3.5h-.1zm-.2-22.2h.3l.2.2c.5 2.2.2 4.4.2 6.6 0 .2-.1.3-.2.5l-.2.2h-.3v-7.5z"/>
  <path class="st47" d="M346.2 155.5v-5.6c.7 1.3.2 2.8.3 4.2.1.6 0 1.2.9 1.1 0 .1.1.2.1.2-.4 1-.8.2-1.3.1z"/>
  <path class="st10" d="M271.8 133h.3c.6.6.4 1.4.4 2.1 0 1.5.1 3-.1 4.6 0 .2-.1.4-.2.5l-.2.2h-.3c.1-2.4.1-4.9.1-7.4z"/>
  <path class="st47" d="M345.7 149.9v5.6c-.4 0-.8 1-1.2 0 0-.1.1-.2.1-.3 1 .1.8-.6.8-1.1.1-1.4-.4-2.9.3-4.2z"/>
  <path class="st48" d="M364.9 155.5V152c.6-.1.6.3.6.7v2.5c.1.1.1.2.1.2l-.1.1h-.6z"/>
  <path class="st18" d="M350.1 155.5v-5.2c.7 1.2.2 2.6.3 3.9.1.6 0 1.2.9 1.1 0 .1.1.2.1.3-.5.9-.9-.1-1.3-.1z"/>
  <path class="st47" d="M357.2 150.8v4.7c-.4.1-.9 1-1.3 0v-.2c.9.1.9-.5.9-1.1.2-1.2-.2-2.4.4-3.4z"/>
  <path class="st49" d="M367.3 155.5h-.6c-.1 0-.2-.1-.1-.2 0-.1 0-.1.1-.1 0-1 0-2 .1-2.9.6-.3.7.1.7.5-.1.9.1 1.8-.2 2.7z"/>
  <path class="st47" d="M362.8 155.2c0 .1.1.2.1.3-.4 1-.8 0-1.2 0v-4.4c.7 1 .2 2.1.3 3.1 0 .6 0 1.1.8 1z"/>
  <path class="st18" d="M367.3 155.5V153c0-.4-.1-.8-.6-.8.6-.5.8-.2.9.4v1.7c0 .6.2.9.9.8 0 .1.1.2.1.3-.5 1.1-.9.2-1.3.1z"/>
  <path class="st47" d="M370.5 152.8v2.7c-.4 0-.8 1-1.2 0 0-.1.1-.2.1-.3.6.1.9-.2.9-.8-.1-.6-.3-1.1.2-1.6z"/>
  <path class="st10" d="M272 125.6v-.3h.9v.3c-.8.6-.1.6-.9 0z"/>
  <path class="st47" d="M332.9 155.5c0-.1.1-.2.1-.3h1.1c0 .1.1.2.1.3-.4 1-.9-.1-1.3 0z"/>
  <path class="st18" d="M329.1 155.5c0-.1 0-.2.1-.3h1.1c0 .1.1.2.1.3-.5 1-.9-.1-1.3 0zm-3.7-.3h.2c.3-.2.6-.2.9 0 0 .1.1.2.1.3-.4 1-.8 0-1.2 0-.1-.1-.1-.2 0-.3z"/>
  <path class="st47" d="M320.8 155.2c0 .1.1.2.1.3-.4 0-.9 1-1.3 0 0-.1 0-.2.1-.2.3-.1.7-.1 1.1-.1zm-8.9.3c0-.1.1-.2.1-.3h1.1c0 .1.1.2.1.3-.4 1-.9-.1-1.3 0zm-32.5 0c0-.1.1-.2.1-.3.4-.3.7-.3 1.1 0 0 .1.1.2.1.3-.5-.1-.9 1-1.3 0zm24.8 0c0-.1.1-.2.1-.3h1.1c0 .1.1.2.1.3-.4-.1-.9 1-1.3 0z"/>
  <path class="st18" d="M296 155.2c0 .1 0 .2.1.3-.4-.1-.9 1-1.3 0v-.2c.4-.1.8-.1 1.2-.1z"/>
  <path class="st47" d="M292.8 155.2h1.2v.2c-.4 1-.9 0-1.3 0 0 0 0-.1.1-.2z"/>
  <path class="st18" d="M288.3 155.2c0 .1.1.2.1.3-.4-.1-.9 1-1.3 0 0-.1 0-.2.1-.3.3-.3.7-.3 1.1 0z"/>
  <path class="st47" d="M284.4 155.2c0 .1.1.2.1.3-.4 1-.8 0-1.3 0 0-.1.1-.2.1-.3.4-.3.8-.3 1.1 0z"/>
  <path class="st18" d="M366.6 155.2c0 .1 0 .2.1.3-.4-.1-.8 1.1-1.2 0 0-.1 0-.2.1-.3h1z"/>
  <path class="st47" d="M357.8 155.5c0-.1.1-.2.1-.3h1.1c0 .1.1.2.1.2-.5 0-.9 1.2-1.3.1z"/>
  <path class="st18" d="M349.5 155.2c0 .1.1.2.1.3-.4-.1-.9 1-1.3 0v-.2c.4-.1.8-.1 1.2-.1z"/>
  <path class="st47" d="M341.8 155.2c0 .1.1.2.1.3-.4-.1-.8 1-1.2 0 0-.1.1-.2.1-.3h1zm-3.9 0c0 .1.1.2.1.3-.4 1-.8-.1-1.2 0 0-.1.1-.2.1-.3h1z"/>
  <path class="st18" d="M276.7 155.2c0 .1.1.2.1.3-.4 1-.8-.1-1.3 0 0-.1 0-.2.1-.3.4-.3.8-.3 1.1 0z"/>
  <path class="st47" d="M282.4 155.2c0 .1.1.2.1.3-.3.6-.7.6-1 0 0-.1 0-.2.1-.3.2-.2.5-.2.8 0zm24 0h.9c0 .1.1.2.1.3-.3.6-.7.6-1 0-.1-.1-.1-.2 0-.3zm11.4.2v-.2h1v.2c-.3.7-.7.7-1 0zm17.2.1c0-.1 0-.2.1-.3h.9c0 .1 0 .2.1.2-.4.6-.8.7-1.1.1z"/>
  <path class="st18" d="M352.1 155.5c0-.1 0-.2.1-.3h.9v.2c-.3.6-.6.8-1 .1zm3-.3c0 .1 0 .2.1.3-.4.8-.7.5-1 0v-.2c.3-.1.6-.1.9-.1z"/>
  <path class="st47" d="M360.8 155.2c0 .1 0 .2.1.2-.3.6-.7.6-1 0 0-.1 0-.2.1-.2h.8z"/>
  <path class="st50" d="M371.4 155.5c0-.1 0-.2.1-.3.6.1.6.4.5 1-.3-.3-.5-.5-.6-.7z"/>
  <path class="st20" d="M272 125.6h.8v7.1c-.8.6-.1.6-.9 0 .1-2.3.1-4.7.1-7.1z"/>
  <path class="st20" d="M272 140.1V133c.8-.3.1-.3.8 0v7.1c-.7.6 0 .6-.8 0z"/>
  <path class="st51" d="M272.3 154.8c-.1.4-.1-7.4-.1-7h-.1c0-2.5-.1-4.9-.1-7.4.8-.3.1-.3.9 0v7.4c-1.1.1-.8-.7-.8-1.3"/>
  <path class="st52" d="M274.8 140.7c0 2-.1 4-.1 6 0 .6.1 1.3-.9 1.1v-7.4c.2-.1.4-.2.7-.3l.3.6z"/>
  <path class="st53" d="M272.9 155.2c-.8.1-.9-.4-.9-1v-5.1c0-.6.1-1.1.8-1 .1 2.4.1 4.7.1 7.1z"/>
  <path class="st54" d="M273.8 148.1c.8-.1.9.3.9 1v5.2c0 .6-.1 1.1-.9 1v-7.2z"/>
  <path class="st10" d="M272.9 133.1h-.8v-.3h.9c-.1 0-.1.1-.1.3zm0 7.3h-.9v-.3h.9v.3z"/>
  <path class="st55" d="M292.1 140.7c-.5 2-.1 4-.2 5.9 0 .6.1 1.2-.9 1.1 0-2.4 0-4.7-.1-7.1.4-.3.8-.4 1.2.1z"/>
  <path class="st56" d="M289.2 148.1v-7.7c.3 0 .7-.1.9.3v5.7c0 .5.2 1-.2 1.4-.2.2-.4.5-.7.3z"/>
  <path class="st22" d="M276.7 155.2h-1.1v-7.1l.9-.3c.6 2.5.2 4.9.2 7.4z"/>
  <path class="st20" d="M280.6 155.2h-1.1v-7.1l.9-.3c.5 2.5.1 4.9.2 7.4zm1.8 0h-.9v-7.1l.6-.3c.7 2.5.2 4.9.3 7.4zm2 0h-1.1v-7.1l.9-.3c.6 2.5.2 4.9.2 7.4z"/>
  <path class="st54" d="M289.2 148.1l.6-.3c.5 2.4.1 4.9.2 7.4-.9.1-.9-.5-.9-1.1.1-2 .1-4 .1-6z"/>
  <path class="st55" d="M291 148.1c.8-.1.9.4.9 1v5.1c0 .6-.1 1.1-.9 1v-7.1zm41.3.3c-.4 1.9-.1 3.8-.2 5.7 0 .6 0 1.2-.9 1.1v-7.1c.4.1.8-.2 1.1.3zm-34.6 6.8c-.8.1-.9-.4-.9-1v-5.1c0-.6.1-1.1.9-1v7.1z"/>
  <path class="st22" d="M288.3 155.2h-1.1v-7.1l.9-.3c.5 2.5.1 4.9.2 7.4z"/>
  <path class="st57" d="M286.2 151.8v2.8c0 .3-.1.6-.5.5-.3 0-.4-.3-.4-.5v-5.9c0-.3.1-.6.5-.5.3 0 .4.3.4.5v3.1z"/>
  <path class="st55" d="M322.6 155.2c-.7.1-.9-.3-.9-1v-5.1c0-.6.2-1.1.9-1v7.1z"/>
  <path class="st58" d="M326.4 155.2h-.9v-6c0-.6-.1-1.2.9-1.1v7.1zm1-7.1c.8-.1.9.4.9 1v5.1c0 .6-.1 1.1-.9 1v-7.1z"/>
  <path class="st23" d="M278.5 140.4v6.3c0 .6 0 1.2-.9 1.1v-6.3c0-.6 0-1.2.9-1.1z"/>
  <path class="st59" d="M277.7 148.1c.7-.1.9.3.9 1v5.1c0 .6-.1 1.1-.9 1v-7.1z"/>
  <path class="st60" d="M302.5 148.1c.5 0 .9.1.9.8v5.4c0 .3.1.8-.4.8-.6 0-.5-.5-.5-.9v-6.1z"/>
  <path class="st55" d="M309.3 155.2c-.8.1-.9-.4-.9-1v-5.1c0-.6.1-1.1.9-1v7.1zm6.6-7.1c.8-.1.9.4.8 1v5.1c0 .6-.1 1.1-.9 1 .1-2.4.1-4.7.1-7.1z"/>
  <path class="st60" d="M310.2 155.2v-6c0-.6 0-1.2.9-1.1v6c0 .7 0 1.2-.9 1.1z"/>
  <path class="st61" d="M267.8 100.2H376V169H267.8z"/>
  <circle class="st62" cx="324" cy="134.6" r="13.1"/>
  <path class="st63" d="M312.6 129.4h22.8v13.3h-22.8z"/>
  <text transform="translate(318.346 132.635)">
    <tspan x="0" y="0" class="st0 st64 st65">34 € / an</tspan><tspan x="-2.7" y="4" class="st0 st64 st65">d’économies*</tspan><tspan x="-2.7" y="8" class="st0 st64 st66">éco-gestes, sobriété</tspan>
  </text>
  <circle class="st67" cx="293.4" cy="134.6" r="13"/>
  <path class="st63" d="M281.5 128.3h24v15.5h-24z"/>
  <text transform="translate(287.765 131.575)">
    <tspan x="0" y="0" class="st0 st64 st65">32 € / an</tspan><tspan x="-2.6" y="4" class="st0 st64 st65">d’économies*</tspan><tspan x="-5" y="8" class="st0 st64 st66">Changement de l’éclairage</tspan>
  </text>
  <circle class="st68" cx="354.3" cy="134.6" r="12.9"/>
  <path class="st63" d="M342 127.9h26.1v15.5H342z"/>
  <text transform="translate(349.346 131.195)">
    <tspan x="0" y="0" class="st0 st64 st65">45 € / an</tspan><tspan x="-2.6" y="4" class="st0 st64 st65">d’économies*</tspan><tspan x="-4.3" y="6.9" class="st0 st64 st66">Changement du matériel</tspan><tspan x="-.9" y="9.9" class="st0 st64 st66">(froid, lavage...)</tspan>
  </text>
  <path class="st63" d="M273 160.9h98.9v2.8H273z"/>
  <text transform="translate(273.017 161.79)">
    <tspan x="0" y="0" class="st69 st70">*</tspan><tspan x=".8" y=".6" class="st69 st70">économies d’énergie moyennes détectées chez les participants à la formation, sur la base du tarif Enercoop.</tspan>
  </text>
  <path class="st1" d="M374.4 72.8c2.1 2.6 3.4 5.9 3.4 9.5v107.6c0 8.2-6.7 14.9-14.9 14.9h-82.2c-3.8 0-7.3-1.5-10-3.8m0-.1c-3-2.7-4.9-6.7-4.9-11V82.3c0-8.2 6.7-14.9 14.9-14.9h82.2c4.6 0 8.7 2.1 11.5 5.4"/>
  <path class="st0" d="M299.4 92H279c-4.6 0-8.2-3.7-8.2-8.2v-3c0-4.6 3.7-8.2 8.2-8.2h20.4c4.6 0 8.2 3.7 8.2 8.2v3c0 4.5-3.7 8.2-8.2 8.2z"/>
  <circle class="st0" cx="324.2" cy="82.5" r="6.9"/>
  <circle class="st0" cx="347.3" cy="82.5" r="6.9"/>
  <path class="st1" d="M278.6 76.7h20v11.7h-20z"/>
  <path class="st0" d="M324.2 112.2c-21 0-38 17-38 38s17 38 38 38 38-17 38-38-17-38-38-38zm0 64.4c-14.6 0-26.4-11.8-26.4-26.4 0-14.6 11.8-26.4 26.4-26.4s26.4 11.8 26.4 26.4c0 14.6-11.8 26.4-26.4 26.4z"/>
  <path class="st68" d="M340.6 129.6c11.4 9.1 13.2 25.7 4.2 37.1s-25.7 13.2-37.1 4.2"/>
  <path class="st68" d="M308.1 170.9c-11.4-9.1-13.2-25.7-4.2-37.1s25.7-13.2 37.1-4.2"/>
  <circle class="st71" cx="324.2" cy="150.3" r="26.4"/>
  <path class="st72" d="M266.9 100.2H377"/>
  <path class="st0" d="M334.3 132.5c-.2 0-.4 0-.7-.1-1.1-.4-2.2-.7-3.3-.8-1.1-.1-1.9-1.2-1.7-2.3.1-1.1 1.1-1.9 2.2-1.8 1.4.2 2.8.5 4.1 1 1 .4 1.6 1.6 1.2 2.6-.2.9-1 1.4-1.8 1.4zm11 25.3c-.2 0-.5 0-.7-.2-1-.4-1.5-1.6-1.1-2.7.8-2 1.2-4.2 1.2-6.4 0-5.4-2.4-10.4-6.5-13.6-.9-.7-1.1-2-.4-2.9.7-.9 1.9-1.1 2.8-.4 5.2 4 8.1 10.2 8.1 16.9 0 2.7-.5 5.4-1.5 7.9-.4.9-1.1 1.4-1.9 1.4z"/>
  <path class="st74" d="M208.6 208.4c1-3.1 1.5-6.2 1.4-9.6-.1-26.4-.1-52.8 0-79.2 0-4.1-.1-8.4-1.6-11.6-2-4.5-4.9-7.3-9.3-7.2-31.1.4-62.2.2-93.3.2-7.4 0-10.8 4.8-10.8 15.8 0 26.6-.5 53.3.2 79.9.3 13.8-.6 27.5-.3 41.3.4 13.8.1 27.5.1 41.3v41.3s.3 27.6-.1 41.3c-.3 8.8 4.1 15.2 10.4 17.5 4.3 1.6 8.2-.3 12.2-.3 23.4 0 46.9.1 70.3-.1 3.8 0 7.2 2.2 11.3.4 7.4-3.2 10.7-8 10.7-19.6V218.6c0-3.4.2-6.8-1.4-9.6"/>
  <path class="st83" d="M156.7 151.8v24.3m0-49.7v24.3m0 1c7.1 3.7 14.3 7.4 21.4 11.1m-22.3-11c-6.2 3.7-12.5 7.3-18.7 11m1.1-22.5c5.8 3.6 11.7 7.3 17.5 10.9m22.4-10.4c-7.1 3.5-14.3 6.9-21.4 10.4m-18.2 3.5c4.5 2.6 5.6 6.5 5.9 10.7m19.3 5.5c-4.6-4.1-9.3-4.1-13.9 0m12.7-39.3c-3.9 2.3-7.7 2.3-11.6 0m27.7 24.2c-6.2.6-9.3 4-9.4 10.2m-32.9-18.6c6.1-1.2 8.9-4.9 8.4-11.1m26.2.1c-1.1 6.1 1.3 10 7.3 11.8"/>
  <path class="st84" d="M212.7 208.4H90.4"/>
  <path class="st79" d="M114.1 145.7c.2 12.6.3 25.3.5 37.9m0 52.3c-.1 12.4-.2 24.8-.2 37.2"/>
  <path class="st1" d="M117.6 380.2h13.1v7.4h-13.1zm54.6 0h13.1v7.4h-13.1z"/>
  <path class="st73" d="M292.1 384.1h72.4"/>
  <path class="st76" d="M269.5 318.6c-.8 1.6-.5 3.3-.5 5v93.6c0 5.6 1 6.5 6.5 6.1 2.5-.2 3.8-1.1 3.5-3.6-.5-3.7 1.8-4.1 4.6-4h87c3.1 0 6.1-.7 6.3 4.5.1 4.4 4.5 2.8 7.3 3 3.4.2 3-2.5 3-4.5v-94.1c0-10.7-.1-21.5 0-32.2 0-3.7-1.1-5.2-5.1-5.1-17.9.2-35.9.1-53.8.1h-42.8c-4.2 0-8.4.1-12.6 0-2.2 0-4 .8-4 3 .2 8.9-.7 17.8.5 26.7 0 .4.3.7.5 1"/>
  <path class="st85" d="M270.5 318.1h115.2"/>
  <path class="st76" d="M366.6 338.7h-76.5"/>
  <path class="st1" d="M376.6 285.9c0-6.5 0-6.5-6.5-6.5h-27.2c-7 0-7 0-7 7"/>
  <path class="st76" d="M320.3 285.9c0-6.5 0-6.5-6.5-6.5-9.4 0-18.8.2-28.2-.1-5-.2-7.4 1.6-6.5 6.6"/>
  <path class="st85" d="M281.5 328.7c-2.5.8-2.5 2.8-2.5 5 0 22.1.1 44.3 0 66.4 0 3.8 1.3 5.1 5.1 5.1 29.2-.1 58.4-.1 87.5 0 3.9 0 5.1-1.2 5.1-5.1-.2-22-.1-43.9-.1-65.9 0-5.5 0-5.5-5.5-5.5h-89"/>
  <circle class="st0" cx="305.5" cy="304.4" r="6.2"/>
  <circle class="st74" cx="285" cy="304.4" r="3"/>
  <circle class="st0" cx="326.3" cy="304.4" r="6.2"/>
  <circle class="st0" cx="347.4" cy="304.4" r="6.2"/>
  <circle class="st0" cx="369.1" cy="304.4" r="6.2"/>
  <circle class="st78" cx="285" cy="304.4" r=".9"/>
  <path class="st80" d="M340.2 257.1c-.3 1.3 0 2.7-.2 4.1-.3 2.1.1 4.2 0 6.3-.1 2.1 0 4.1 0 6.2 0 1.2-.2 2.4.5 3.5.9 1.4 2.1 2.2 3.8 2.2h25c1.9 0 3.5-1 4.2-2.8.4-.9.1-2 .1-2.9 0-2.4-.1-4.9 0-7.3.1-1.8 0-3.6 0-5.5 0-1.3 0-2.5-.2-3.8"/>
  <path class="st81" d="M341.6 253.1c1.3-1.8 3.5-1.9 5.3-2.5 2.7-.9 5.6-1.2 8.4-1.3 2.6-.1 5.3 0 8 .6 2.2.5 4.4.8 6.4 1.7.8.4 1.7.5 2.3 1.4.5.7 1.4.7 2.1.9 1.1.3 1.1 1 .9 1.7-.2.9-.9 1.4-1.8 1.2-.4-.1-.9-.1-1.3-.1h-30.3c-.8 0-1.6.6-2.4-.2-1-.9-1-2 .3-2.6 1-.5 1.9-1 3-.2.3.2.7.1 1.1.1H370c.8 0 1.5-.1 2.1-.6"/>
  <path class="st80" d="M340.5 275.1h21.6m-3.8-25.9c.5-.4 1.3-.1 1.8-.6.4-.4.5-.9.4-1.3-.2-.5-.5-.9-1.2-.9h-4.6c-.8 0-1.2.5-1.4 1.1-.2.6.1 1.2.8 1.4.6.2 1.2.5 2 .2.6-.2 1.4-.3 2.1.2m-18.5 10.2c-1.2 0-2.4-.1-3.6 0-.9.1-1.6.5-1.8 1.4-.2.7.2 1.2.8 1.6.3.2.5.1.7.1 1.4-.2 2.7.2 3.9.9m40.6-2.3h-.3c-.8-1.8-2.3-1.8-3.9-1.7h-2m5.8 1.8c-.6 1-1.4 1.4-2.5 1.3-1.2-.2-2.1.4-3.1.8m-3.4.6v5m2.4 6.1h-3.9"/>
  <path class="st0" d="M350.9 392h-45.4c-6.6 0-12-5.4-12-12v-22.6c0-6.6 5.4-12 12-12h45.4c6.6 0 12 5.4 12 12V380c0 6.6-5.4 12-12 12z"/>
</svg>
