<svg id="AUTRES" xmlns="http://www.w3.org/2000/svg" viewBox="0 0 500 500">
  <style>
    .st0{fill:#FFFFFF;} .st1{fill:#005E80;} .st2{fill:#005E80;stroke:#FFFFFF;stroke-width:2.1707;stroke-miterlimit:10;} .st3{fill:#005E80;stroke:#FFFFFF;stroke-width:2.8491;stroke-miterlimit:10;} .st4{fill:#FFFFFF;stroke:#005E80;stroke-width:2.4787;stroke-miterlimit:10;} .st5{fill:#FFFFFF;stroke:#005E80;stroke-width:2.3916;stroke-miterlimit:10;} .st6{fill:#FFFFFF;stroke:#005E80;stroke-width:2.8491;stroke-miterlimit:10;} .st7{fill:#005E80;stroke:#FFFFFF;stroke-width:2.4787;stroke-miterlimit:10;} .st8{fill:#005E80;stroke:#FFFFFF;stroke-width:1.9655;stroke-miterlimit:10;} .st9{fill:#D5D5D5;} .st10{fill:#C1C1C1;} .st11{fill:#4F81BC;} .st12{fill:#5182BD;} .st13{fill:#5A89C0;} .st14{fill:#5B89C1;} .st15{fill:#5282BD;} .st16{fill:#5081BD;} .st17{fill:#5E8BC2;} .st18{fill:#C3C3C3;} .st19{fill:#6892C5;} .st20{fill:#FEFEFE;} .st21{fill:#EEF3F8;} .st22{fill:#FDFDFD;} .st23{fill:#ECF1F7;} .st24{fill:#E4EBF4;} .st25{fill:#E3EAF3;} .st26{fill:#E2EAF3;} .st27{fill:#5686BF;} .st28{fill:#5F8CC2;} .st29{fill:#5E8CC2;} .st30{fill:#AFB7C0;} .st31{fill:#5081BC;} .st32{fill:#E7EDF5;} .st33{fill:#628EC3;} .st34{fill:#739AC9;} .st35{fill:#6792C5;} .st36{fill:#618EC3;} .st37{fill:#5585BE;} .st38{fill:#6490C4;} .st39{fill:#608DC2;} .st40{fill:#6A94C5;} .st41{fill:#5081BB;} .st42{fill:#4F81BB;} .st43{fill:#D0D2D4;} .st44{fill:#6992C5;} .st45{fill:#618DC1;} .st46{fill:#FCFCFC;} .st47{fill:#D6D6D6;} .st48{fill:#6993C5;} .st49{fill:#6993C4;} .st50{fill:#D9D9D9;} .st51{fill:#FEFCFC;} .st52{fill:#EFF3F8;} .st53{fill:#FAEFEF;} .st54{fill:#EEF2F7;} .st55{fill:#F4F7FA;} .st56{fill:#EEF2F8;} .st57{fill:#E6ECF4;} .st58{fill:#F4F6FA;} .st59{fill:#EAEFF6;} .st60{fill:#EBF0F6;} .st61{opacity:0.7;fill:#FFFFFF;} .st62{fill:#0071CE;} .st63{fill:#9ACAEB;} .st64{fill:#005E82;} .st65{fill:none;stroke:#005E82;stroke-width:7;stroke-miterlimit:10;} .st66{fill:none;stroke:#FFFFFF;stroke-width:4;stroke-miterlimit:10;} .st67{fill:#FFFFFF;stroke:#005E80;stroke-width:1.1638;stroke-linecap:round;stroke-linejoin:round;stroke-miterlimit:10;} .st68{fill:#005E80;stroke:#FFFFFF;stroke-width:1.1959;stroke-miterlimit:10;} .st69{fill:none;stroke:#FFFFFF;stroke-width:1.1959;stroke-linecap:round;stroke-linejoin:round;stroke-miterlimit:10;} .st70{fill:#005E80;stroke:#FFFFFF;stroke-width:2.4102;stroke-linecap:round;stroke-linejoin:round;stroke-miterlimit:10;} .st71{fill:#FFFFFF;stroke:#005E80;stroke-width:2.4102;stroke-linecap:round;stroke-linejoin:round;stroke-miterlimit:10;} .st72{fill:#005E80;stroke:#FFFFFF;stroke-width:0.3427;stroke-linecap:round;stroke-linejoin:round;stroke-miterlimit:10;} .st73{fill:#005E80;stroke:#FFFFFF;stroke-width:3.5877;stroke-miterlimit:10;} .st74{fill:#FFFFFF;stroke:#005E80;stroke-width:1.2051;stroke-linecap:round;stroke-linejoin:round;stroke-miterlimit:10;} .st75{fill:#005E80;stroke:#FFFFFF;stroke-width:1.2051;stroke-linecap:round;stroke-linejoin:round;stroke-miterlimit:10;} .st76{fill:none;stroke:#005E80;stroke-width:6.5582;stroke-miterlimit:10;} .st77{fill:none;stroke:#FFFFFF;stroke-width:3;stroke-linecap:round;stroke-linejoin:round;stroke-miterlimit:10;} .st78{fill:#005E80;stroke:#FFFFFF;stroke-width:4;stroke-miterlimit:10;} .st79{fill:#005E80;stroke:#FFFFFF;stroke-width:4;stroke-linecap:round;stroke-linejoin:round;stroke-miterlimit:10;} .st80{fill:#FEEF3F;} .st81{fill:#FFFFFF;stroke:#005E80;stroke-width:2.8912;stroke-miterlimit:10;} .st82{fill:#005E80;stroke:#FFFFFF;stroke-width:1.51;stroke-miterlimit:10;} .st83{fill:none;stroke:#005E80;stroke-width:0.6353;stroke-miterlimit:10;} .st84{fill:#FFFFFF;stroke:#005E80;stroke-width:2.3555;stroke-miterlimit:10;} .st85{fill:none;stroke:#005E80;stroke-width:2.3555;stroke-miterlimit:10;} .st86{fill:none;stroke:#005E80;stroke-width:0.5428;stroke-miterlimit:10;} .st87{fill:none;stroke:#FFFFFF;stroke-miterlimit:10;} .st88{fill:#035E80;} .st89{fill:#065E80;} .st90{fill:#009F8B;} .st91{fill:#005E80;stroke:#FFFFFF;stroke-width:0.3737;stroke-miterlimit:10;} .st92{fill:#FFFFFF;stroke:#005E80;stroke-width:0.3737;stroke-miterlimit:10;} .st93{fill:#FFFFFF;stroke:#005E80;stroke-width:1.2452;stroke-miterlimit:10;} .st94{fill:#005E80;stroke:#FFFFFF;stroke-width:0.5239;stroke-miterlimit:10;} .st95{fill:#005E80;stroke:#FFFFFF;stroke-width:1.336;stroke-miterlimit:10;}
  </style>
  <path class="st0" d="M250 496.3c-65.8 0-127.7-25.6-174.2-72.2S3.7 315.8 3.7 250 29.3 122.3 75.8 75.8 184.2 3.7 250 3.7s127.7 25.6 174.2 72.2c46.5 46.5 72.2 108.4 72.2 174.2s-25.6 127.7-72.2 174.2c-46.5 46.4-108.4 72-174.2 72z"/>
  <path class="st1" d="M250 6.7c32.9 0 64.7 6.4 94.7 19.1 29 12.3 55 29.8 77.4 52.2s39.9 48.4 52.2 77.4c12.7 30 19.1 61.9 19.1 94.7s-6.4 64.7-19.1 94.7c-12.3 29-29.8 55-52.2 77.4s-48.4 39.9-77.4 52.2c-30 12.7-61.9 19.1-94.7 19.1s-64.7-6.4-94.7-19.1c-29-12.3-55-29.8-77.4-52.2S38 373.7 25.8 344.7c-12.7-30-19.1-61.9-19.1-94.7s6.4-64.7 19.1-94.7c12.3-29 29.8-55 52.2-77.4s48.4-39.9 77.4-52.2c29.9-12.6 61.7-19 94.6-19m0-6C112.3.7.7 112.3.7 250S112.3 499.3 250 499.3 499.3 387.7 499.3 250 387.7.7 250 .7z"/>
  <path class="st1" d="M308.2 391H231c-3.7 0-3.8-.1-2.8-2.7 1.3-3.3 3.9-6.1 6.8-8.7 8.1-7.1 18-13 28.4-18.5 18.6-9.7 38.6-17.8 60.1-24.1 16.6-4.8 33.7-8.1 51.9-8 5.2.1 10.5 0 15.7-.1 2 0 3.9.1 5.9.4 7.7 1.2 10.5 3.2 11.7 8.6.6 2.9.9 5.9.8 8.8-.2 9.7-.5 19.3-.7 29 0 1.5-.9 2.4-3 2.6-1.8.2-3.5.5-5.3.8-7.2 1.1-10.9 4-11.3 9.2-.1 2.1-1.1 2.6-4 2.5-25.5.2-51.3.2-77 .2zm21-10.3h2.7c5.2-.1 10.5.2 15.6-.8 4.4-.9 5.7-3.3 3.3-6-.4-.5-.9-1-1.5-1.3-2.3-1.2-1.2-1.7.8-2.3 3.8-1 7.5-2.2 11-3.6 6.3-2.4 12.2-5.1 16.6-9.2 4.6-4.3 2.8-8.3-4.4-10.1-3.7-.9-7.6-1.3-11.4-1.3-23.3.2-44.6 4.7-63.8 13.9-3.6 1.7-6.8 3.7-9 6.4-2.9 3.7-1.4 6.7 4.1 8.5 3.1 1 6.3 1.4 9.7 1.6 1 0 2.3-.1 2.8.8 1.4 2.4 4.5 2.7 7.5 3 5.3.6 10.7.4 16 .4zm59.8 15.7c-1.2 1.7-2.3 3.1-3.2 4.5-.5.7-1.1.9-2.1.9H223.3c-3.5 0-3.2.1-2.1-2.1 1.4-2.7 3.7-3.3 7.7-3.3 52.1.1 104.2.1 156.2.1 1.2-.1 2.3-.1 3.9-.1z"/>
  <path class="st93" d="M329.2 380.7c-5.3 0-10.7.1-16-.4-3.1-.3-6.1-.6-7.5-3-.5-.9-1.8-.7-2.8-.8-3.4-.1-6.6-.6-9.7-1.6-5.5-1.7-7-4.8-4.1-8.5 2.1-2.7 5.4-4.7 9-6.4 19.2-9.1 40.6-13.7 63.8-13.9 3.9 0 7.7.4 11.4 1.3 7.2 1.8 9 5.8 4.4 10.1-4.4 4.1-10.4 6.7-16.6 9.2-3.5 1.4-7.2 2.6-11 3.6-2 .5-3.1 1-.8 2.3.6.3 1.1.9 1.5 1.3 2.4 2.7 1.1 5.1-3.3 6-5.1 1-10.4.7-15.6.8h-2.7zm-.6-1.2c5 .1 9.9 0 14.9-.3 2.5-.1 5.5-.2 6.4-2.1.9-1.9-1.3-3.3-3.2-4.4-9.4-5.8-26.2-5.9-35.7-.1-2 1.2-4.3 2.6-3.2 4.6 1 1.9 4 1.9 6.5 2 4.7.2 9.5.4 14.3.3z"/>
  <path class="st94" d="M328.6 379.5c-4.8.1-9.6 0-14.3-.3-2.5-.1-5.5-.2-6.5-2-1.1-2 1.3-3.4 3.2-4.6 9.4-5.8 26.3-5.8 35.7.1 1.9 1.2 4.1 2.5 3.2 4.4-.9 1.9-4 2-6.4 2.1-5 .3-10 .4-14.9.3z"/>
  <path class="st1" d="M97.9 212.2c-1.5-19.8-3-39.5-4.6-59.3-.2-1.9.3-2.3 2.1-2.3 26.8.1 53.5.1 80.3 0 1.8 0 2.3.3 2.2 2.3-2.2 30-4.4 60-6.6 89.9-.7 9.9-1.5 19.8-2.2 29.7-.1 1.7-.6 2.1-2.3 2.1-20.6-.1-41.3-.1-61.9 0-1.6 0-2.2-.5-2.3-2.1-1.6-20.1-3.2-40.2-4.7-60.3zm37.7 128.2H86.5c-3.3 0-5.1-1.4-5.2-4.7-.2-7.5-.1-15-.1-22.5 0-1.3.7-2.5 1.4-3.6 5.2-9.7 11.1-19.1 17.4-28.2 1.5-2.1 3.1-3.1 6-3.1 19.9.1 39.8.1 59.8 0 2 0 3.4.5 4.5 2.1 6.9 9.7 13.2 19.9 18.7 30.5.5 1 .7 2.1.7 3.3v20.3c0 4.5-1.4 5.9-5.9 5.9h-48.2zm-.9-19.4c7.9.1 14.5-6.4 14.9-14.2.1-2.1-.5-2.4-2.3-1.4-1 .6-2 1.1-3.1 1.4-2 .6-3.7.2-4.7-1.8-1-1.8-.4-3.8 1.5-5 1.1-.7 2.4-1.4 3.7-1.9 1.8-.7 1.4-1.3.3-2.5-4.5-4.5-11.6-5.4-17.4-2.2-5.7 3.2-8.6 10-6.9 16.4 1.5 6.5 7.3 11.1 14 11.2zM196 207.1c-.2 8.3-.7 15.2-2.5 22.1-2.4 8.9-6.8 16-16.2 18.8-2.6.8-2.7.7-2.5-2 .3-3.9.6-7.7.9-11.6.1-.9.1-1.7 1.1-2.2 5.2-2.4 7.6-6.9 8.2-12.2 1.1-9.2 1.5-18.5-.1-27.7-.6-3.3-2-6.3-4.5-8.6-.7-.7-.9-1.4-.8-2.4.3-4.3.7-8.7 1-13 .1-1.6.8-1.2 1.7-.7 5.4 3.1 8.4 8.1 10.4 13.7 2.9 8.8 3.3 17.9 3.3 25.8zm-60 137.1h50.8c1.2 0 1.8.2 1.9 1.5.4 4 .9 8 1.4 12 .2 1.4-.2 2.1-1.8 2.1-5.5-.1-11 0-16.4 0-1.2 0-1.6-.4-1.5-1.5.1-2 0-4 0-6 0-3.1-.9-4-4-4H105c-3.4 0-4.2.8-4.2 4.3 0 2.3.8 5.4-.4 6.8-1.4 1.6-4.5.4-6.9.5-3.4.1-6.8 0-10.2 0-1.5 0-2-.6-1.9-2 .5-4.1 1-8.2 1.5-12.2.2-1.7 1.4-1.2 2.4-1.2 16.8-.3 33.7-.2 50.7-.3zm41.8-197.5H94.6c7.9-8.4 69.5-8.6 83.2 0zm145.5 81H260c-4.7 0-7.7-1.9-9.3-5.6-.5-1.3-.6-2.7-.6-4V128c0-1.4 0-2.7.2-4.1.4-3.1 2.2-5 5.4-5.1 3.2-.1 6.4 0 9.6-.1 1.8-.1 1.4 1.1 1.4 2.1-.5 17.1-1 34.1-1.4 51.2-.3 10-.6 20-.8 30-.1 5.6 2.7 8.4 8.3 8.4h34.6c6 0 8.7-2.5 8.5-8.5-.6-24.3-1.3-48.7-1.9-73-.1-2.7 0-5.5-.2-8.2-.1-1.7.6-2 2.1-2 8.9.1 17.9 0 26.8 0h46.2c5.1 0 6.6 1.4 7.2 6.4.2 1.3.2 2.6.2 3.9v88.3c0 7.1-3.4 10.5-10.5 10.5-20.8-.1-41.6-.1-62.5-.1zm41.4-58.5v-13.4c0-3.1-2.4-5.4-5.5-5.5-2.8-.1-5.6 0-8.4 0-3.7 0-6.1 2.3-6.1 6.1-.1 8.9 0 17.7 0 26.6 0 1.4.5 1.8 1.8 1.8 5.5-.1 10.9-.1 16.4 0 1.5 0 1.9-.4 1.9-1.9-.1-4.6-.1-9.2-.1-13.7zm-10 21.2h-8.4c-1.1 0-1.7.1-1.6 1.4.1 4.2 0 8.5.1 12.7.1 3.5 2.5 5.8 5.9 5.8 2.8 0 5.6.1 8.4 0 3.3-.1 5.6-2.3 5.6-5.6.1-4.2 0-8.5.1-12.7 0-1.5-.6-1.7-1.9-1.7-2.8.1-5.5.1-8.2.1z"/>
  <path class="st1" d="M268.8 149.9c.5-17.4 1.1-34.9 1.6-52.3.1-3.2 1.5-4.6 4.7-4.6h30.5c3.1 0 4.7 1.6 4.8 4.8.4 12.8.7 25.6 1.1 38.4.6 21 1.1 42 1.8 63 .2 7.5-.5 8.4-8.1 8.4h-31.6c-4.8 0-6.3-1.5-6.1-6.3.4-17.2.8-34.3 1.3-51.4zm20.6-25.5c0-.1 0-.1 0 0h12.3c2.7-.1 4.5-1.6 4.3-3.7-.5-5.8-.9-11.6-1.6-17.4-.4-4-1.1-4.5-5.2-4.5h-19.1c-1 0-2 .1-2.9.4-1.4.4-2.2 1.1-2.3 2.7-.5 5.7-1 11.5-1.6 17.2-.4 3.8.8 5.2 4.7 5.3h11.4zm1.1 25.5c-1.9 0-3.3 1.5-3.3 3.3 0 1.8 1.5 3.3 3.3 3.4 1.9 0 3.5-1.7 3.4-3.5 0-1.9-1.5-3.3-3.4-3.2zm17.6 26.7c0-1.8-1.5-3.3-3.3-3.4-1.9 0-3.5 1.6-3.4 3.5 0 1.8 1.6 3.3 3.4 3.3 1.7 0 3.3-1.6 3.3-3.4zm-31.5-26.7c-1.8 0-3.4 1.4-3.5 3.2-.1 1.8 1.7 3.5 3.5 3.5s3.3-1.6 3.3-3.4c0-1.8-1.5-3.3-3.3-3.3zm17.4 15c0-1.8-1.5-3.3-3.3-3.4-1.9 0-3.3 1.3-3.4 3.2-.1 1.9 1.5 3.5 3.3 3.5 1.8.1 3.4-1.5 3.4-3.3zm10.7-8.4c1.8 0 3.4-1.6 3.4-3.3 0-1.9-1.6-3.4-3.5-3.3-1.8.1-3.3 1.6-3.2 3.4 0 1.8 1.5 3.3 3.3 3.2zm-24.8 8.5c0-1.8-1.5-3.3-3.3-3.4-1.8 0-3.4 1.4-3.5 3.2-.1 1.8 1.6 3.5 3.4 3.5 1.8 0 3.4-1.6 3.4-3.3zm14.1 11.7c0-1.7-1.5-3.4-3.3-3.4-1.9-.1-3.5 1.5-3.4 3.4 0 1.8 1.6 3.3 3.3 3.3 1.7 0 3.4-1.7 3.4-3.3zm14.1-11.6c-.1-1.8-1.7-3.3-3.4-3.3-1.9 0-3.4 1.7-3.3 3.6.1 1.9 1.6 3.2 3.5 3.1 1.8-.1 3.2-1.6 3.2-3.4zm-31.5 14.6c1.8 0 3.3-1.6 3.3-3.3 0-1.9-1.7-3.4-3.6-3.3-1.7.1-3.3 1.8-3.2 3.5.1 1.6 1.8 3.1 3.5 3.1zM300.2 90c-.5 0-.9.1-1.4 0-1-.3-2.6.9-2.8-1.1-.4-3 0-3.6 2.4-4.2 1.3-.4 2.5-.4 3.8 0 2.2.6 3.3 2.8 2.5 4.8-.3.7-.8.6-1.3.6-1.1-.1-2.2-.1-3.2-.1z"/>
  <path class="st0" d="M364.7 169.2c0 4.5-.1 9.1 0 13.6 0 1.5-.4 2-1.9 1.9-5.5-.1-10.9-.1-16.4 0-1.4 0-1.8-.3-1.8-1.8.1-8.9 0-17.7 0-26.6 0-3.8 2.4-6.1 6.1-6.1 2.8 0 5.6-.1 8.4 0 3.1.1 5.4 2.4 5.5 5.5.1 4.5.1 9 .1 13.5zm-10 21.2c2.7 0 5.5.1 8.2 0 1.3 0 1.9.2 1.9 1.7-.1 4.2 0 8.5-.1 12.7 0 3.2-2.3 5.5-5.6 5.6-2.8.1-5.6.1-8.4 0-3.5-.1-5.9-2.3-5.9-5.8-.1-4.2 0-8.5-.1-12.7 0-1.3.6-1.5 1.6-1.4 2.8-.1 5.6-.1 8.4-.1zm-65.3-66H278c-3.9-.1-5.1-1.5-4.7-5.3.6-5.7 1.1-11.5 1.6-17.2.1-1.6.9-2.3 2.3-2.7 1-.3 1.9-.4 2.9-.4h19.1c4.1 0 4.8.5 5.2 4.5.6 5.8 1.1 11.6 1.6 17.4.2 2.1-1.6 3.6-4.3 3.7-4.1 0-8.2-.1-12.3 0 0-.1 0-.1 0 0zm.1-2.7c0-.1 0-.1 0 0h11.4c1.5 0 2.5-.4 2.2-2.4-.6-5.2-1.1-10.4-1.4-15.6-.1-1.4-.5-2.1-2-2h-19.8c-1.6 0-2.2.5-2.3 2.2-.3 5-.8 10-1.3 14.9-.3 2.6-.1 2.9 2.6 2.9h10.6zm1 28.2c1.9 0 3.4 1.4 3.5 3.2.1 1.8-1.6 3.5-3.4 3.5-1.8 0-3.3-1.5-3.3-3.4s1.4-3.3 3.2-3.3zm17.6 26.7c0 1.7-1.6 3.3-3.3 3.4-1.7 0-3.3-1.5-3.4-3.3 0-1.9 1.5-3.5 3.4-3.5 1.7.1 3.3 1.7 3.3 3.4zm-31.5-26.7c1.8 0 3.3 1.6 3.3 3.3 0 1.7-1.6 3.3-3.3 3.4-1.8 0-3.6-1.7-3.5-3.5.1-1.8 1.7-3.3 3.5-3.2zm17.4 15c0 1.7-1.6 3.3-3.4 3.3-1.9 0-3.4-1.6-3.3-3.5.1-1.9 1.5-3.2 3.4-3.2 1.8.1 3.3 1.6 3.3 3.4zm10.7-8.4c-1.8 0-3.3-1.5-3.4-3.3 0-1.8 1.4-3.3 3.2-3.4 2-.1 3.6 1.4 3.5 3.3.1 1.9-1.5 3.4-3.3 3.4zm-24.8 8.5c0 1.8-1.6 3.3-3.4 3.3-1.8 0-3.5-1.8-3.4-3.5.1-1.7 1.8-3.2 3.5-3.2 1.8 0 3.4 1.6 3.3 3.4zm14.1 11.7c0 1.7-1.7 3.3-3.4 3.4-1.7 0-3.3-1.5-3.3-3.3 0-1.9 1.5-3.5 3.4-3.4 1.7-.1 3.3 1.5 3.3 3.3zm14.1-11.6c.1 1.8-1.4 3.3-3.3 3.4-1.9.1-3.4-1.2-3.5-3.1-.1-1.9 1.4-3.6 3.3-3.6 1.8 0 3.4 1.5 3.5 3.3zm-31.5 14.6c-1.7 0-3.4-1.5-3.5-3.2-.1-1.7 1.5-3.4 3.2-3.5 1.9-.1 3.6 1.4 3.6 3.3.1 1.8-1.5 3.3-3.3 3.4z"/>
  <path class="st1" d="M289.5 121.7h-10.7c-2.6 0-2.8-.3-2.6-2.9.5-5 1-9.9 1.3-14.9.1-1.7.8-2.2 2.3-2.2h19.8c1.5 0 1.9.6 2 2 .4 5.2.8 10.4 1.4 15.6.3 2-.7 2.4-2.2 2.4-3.8 0-7.6-.1-11.3 0 0-.1 0-.1 0 0z"/>
</svg>
